<svg xmlns="http://www.w3.org/2000/svg" xmlns:xlink="http://www.w3.org/1999/xlink" version="1.0" viewBox="0 0 93.7 121.7" enable-background="new 0 0 93.7 121.7" xml:space="preserve">

<svg xmlns="http://www.w3.org/2000/svg" xmlns:xlink="http://www.w3.org/1999/xlink" version="1.1" width="86" height="86" viewBox="0 0 2000 2000" shape-rendering="crispEdges" x="4" y="4"><defs><rect id="r0" width="57" height="57" fill="#000000"></rect></defs><rect x="0" y="0" width="2000" height="2000" fill="#ffffff"></rect><use x="629" y="173" xlink:href="#r0"></use><use x="743" y="173" xlink:href="#r0"></use><use x="800" y="173" xlink:href="#r0"></use><use x="857" y="173" xlink:href="#r0"></use><use x="914" y="173" xlink:href="#r0"></use><use x="971" y="173" xlink:href="#r0"></use><use x="1028" y="173" xlink:href="#r0"></use><use x="1085" y="173" xlink:href="#r0"></use><use x="1256" y="173" xlink:href="#r0"></use><use x="1313" y="173" xlink:href="#r0"></use><use x="629" y="230" xlink:href="#r0"></use><use x="686" y="230" xlink:href="#r0"></use><use x="1028" y="230" xlink:href="#r0"></use><use x="1142" y="230" xlink:href="#r0"></use><use x="629" y="287" xlink:href="#r0"></use><use x="743" y="287" xlink:href="#r0"></use><use x="857" y="287" xlink:href="#r0"></use><use x="914" y="287" xlink:href="#r0"></use><use x="1085" y="287" xlink:href="#r0"></use><use x="1142" y="287" xlink:href="#r0"></use><use x="1199" y="287" xlink:href="#r0"></use><use x="1256" y="287" xlink:href="#r0"></use><use x="1313" y="287" xlink:href="#r0"></use><use x="629" y="344" xlink:href="#r0"></use><use x="800" y="344" xlink:href="#r0"></use><use x="1028" y="344" xlink:href="#r0"></use><use x="1085" y="344" xlink:href="#r0"></use><use x="1142" y="344" xlink:href="#r0"></use><use x="1199" y="344" xlink:href="#r0"></use><use x="1313" y="344" xlink:href="#r0"></use><use x="743" y="401" xlink:href="#r0"></use><use x="914" y="401" xlink:href="#r0"></use><use x="1028" y="401" xlink:href="#r0"></use><use x="1199" y="401" xlink:href="#r0"></use><use x="1256" y="401" xlink:href="#r0"></use><use x="629" y="458" xlink:href="#r0"></use><use x="857" y="458" xlink:href="#r0"></use><use x="1142" y="458" xlink:href="#r0"></use><use x="1313" y="458" xlink:href="#r0"></use><use x="629" y="515" xlink:href="#r0"></use><use x="743" y="515" xlink:href="#r0"></use><use x="857" y="515" xlink:href="#r0"></use><use x="971" y="515" xlink:href="#r0"></use><use x="1085" y="515" xlink:href="#r0"></use><use x="1199" y="515" xlink:href="#r0"></use><use x="1313" y="515" xlink:href="#r0"></use><use x="686" y="572" xlink:href="#r0"></use><use x="743" y="572" xlink:href="#r0"></use><use x="857" y="572" xlink:href="#r0"></use><use x="914" y="572" xlink:href="#r0"></use><use x="1256" y="572" xlink:href="#r0"></use><use x="1313" y="572" xlink:href="#r0"></use><use x="173" y="629" xlink:href="#r0"></use><use x="230" y="629" xlink:href="#r0"></use><use x="401" y="629" xlink:href="#r0"></use><use x="458" y="629" xlink:href="#r0"></use><use x="515" y="629" xlink:href="#r0"></use><use x="857" y="629" xlink:href="#r0"></use><use x="1085" y="629" xlink:href="#r0"></use><use x="1199" y="629" xlink:href="#r0"></use><use x="1256" y="629" xlink:href="#r0"></use><use x="1313" y="629" xlink:href="#r0"></use><use x="1484" y="629" xlink:href="#r0"></use><use x="1598" y="629" xlink:href="#r0"></use><use x="1655" y="629" xlink:href="#r0"></use><use x="1712" y="629" xlink:href="#r0"></use><use x="1769" y="629" xlink:href="#r0"></use><use x="173" y="686" xlink:href="#r0"></use><use x="230" y="686" xlink:href="#r0"></use><use x="401" y="686" xlink:href="#r0"></use><use x="686" y="686" xlink:href="#r0"></use><use x="800" y="686" xlink:href="#r0"></use><use x="914" y="686" xlink:href="#r0"></use><use x="1085" y="686" xlink:href="#r0"></use><use x="1199" y="686" xlink:href="#r0"></use><use x="1256" y="686" xlink:href="#r0"></use><use x="1427" y="686" xlink:href="#r0"></use><use x="1541" y="686" xlink:href="#r0"></use><use x="1655" y="686" xlink:href="#r0"></use><use x="230" y="743" xlink:href="#r0"></use><use x="287" y="743" xlink:href="#r0"></use><use x="344" y="743" xlink:href="#r0"></use><use x="458" y="743" xlink:href="#r0"></use><use x="515" y="743" xlink:href="#r0"></use><use x="629" y="743" xlink:href="#r0"></use><use x="914" y="743" xlink:href="#r0"></use><use x="1028" y="743" xlink:href="#r0"></use><use x="1199" y="743" xlink:href="#r0"></use><use x="1427" y="743" xlink:href="#r0"></use><use x="1484" y="743" xlink:href="#r0"></use><use x="1541" y="743" xlink:href="#r0"></use><use x="1598" y="743" xlink:href="#r0"></use><use x="1655" y="743" xlink:href="#r0"></use><use x="1769" y="743" xlink:href="#r0"></use><use x="230" y="800" xlink:href="#r0"></use><use x="458" y="800" xlink:href="#r0"></use><use x="572" y="800" xlink:href="#r0"></use><use x="743" y="800" xlink:href="#r0"></use><use x="857" y="800" xlink:href="#r0"></use><use x="914" y="800" xlink:href="#r0"></use><use x="1256" y="800" xlink:href="#r0"></use><use x="1313" y="800" xlink:href="#r0"></use><use x="1598" y="800" xlink:href="#r0"></use><use x="344" y="857" xlink:href="#r0"></use><use x="401" y="857" xlink:href="#r0"></use><use x="515" y="857" xlink:href="#r0"></use><use x="743" y="857" xlink:href="#r0"></use><use x="1199" y="857" xlink:href="#r0"></use><use x="1256" y="857" xlink:href="#r0"></use><use x="1313" y="857" xlink:href="#r0"></use><use x="1370" y="857" xlink:href="#r0"></use><use x="1484" y="857" xlink:href="#r0"></use><use x="1541" y="857" xlink:href="#r0"></use><use x="1598" y="857" xlink:href="#r0"></use><use x="1655" y="857" xlink:href="#r0"></use><use x="1712" y="857" xlink:href="#r0"></use><use x="230" y="914" xlink:href="#r0"></use><use x="287" y="914" xlink:href="#r0"></use><use x="629" y="914" xlink:href="#r0"></use><use x="686" y="914" xlink:href="#r0"></use><use x="857" y="914" xlink:href="#r0"></use><use x="914" y="914" xlink:href="#r0"></use><use x="1370" y="914" xlink:href="#r0"></use><use x="1484" y="914" xlink:href="#r0"></use><use x="1541" y="914" xlink:href="#r0"></use><use x="1655" y="914" xlink:href="#r0"></use><use x="401" y="971" xlink:href="#r0"></use><use x="458" y="971" xlink:href="#r0"></use><use x="515" y="971" xlink:href="#r0"></use><use x="572" y="971" xlink:href="#r0"></use><use x="629" y="971" xlink:href="#r0"></use><use x="743" y="971" xlink:href="#r0"></use><use x="800" y="971" xlink:href="#r0"></use><use x="914" y="971" xlink:href="#r0"></use><use x="971" y="971" xlink:href="#r0"></use><use x="1085" y="971" xlink:href="#r0"></use><use x="1199" y="971" xlink:href="#r0"></use><use x="1256" y="971" xlink:href="#r0"></use><use x="1427" y="971" xlink:href="#r0"></use><use x="1541" y="971" xlink:href="#r0"></use><use x="1598" y="971" xlink:href="#r0"></use><use x="1655" y="971" xlink:href="#r0"></use><use x="1712" y="971" xlink:href="#r0"></use><use x="173" y="1028" xlink:href="#r0"></use><use x="230" y="1028" xlink:href="#r0"></use><use x="287" y="1028" xlink:href="#r0"></use><use x="629" y="1028" xlink:href="#r0"></use><use x="743" y="1028" xlink:href="#r0"></use><use x="857" y="1028" xlink:href="#r0"></use><use x="1142" y="1028" xlink:href="#r0"></use><use x="1256" y="1028" xlink:href="#r0"></use><use x="1313" y="1028" xlink:href="#r0"></use><use x="1712" y="1028" xlink:href="#r0"></use><use x="173" y="1085" xlink:href="#r0"></use><use x="344" y="1085" xlink:href="#r0"></use><use x="401" y="1085" xlink:href="#r0"></use><use x="515" y="1085" xlink:href="#r0"></use><use x="857" y="1085" xlink:href="#r0"></use><use x="971" y="1085" xlink:href="#r0"></use><use x="1142" y="1085" xlink:href="#r0"></use><use x="1199" y="1085" xlink:href="#r0"></use><use x="1256" y="1085" xlink:href="#r0"></use><use x="1484" y="1085" xlink:href="#r0"></use><use x="1598" y="1085" xlink:href="#r0"></use><use x="1655" y="1085" xlink:href="#r0"></use><use x="1712" y="1085" xlink:href="#r0"></use><use x="173" y="1142" xlink:href="#r0"></use><use x="230" y="1142" xlink:href="#r0"></use><use x="287" y="1142" xlink:href="#r0"></use><use x="629" y="1142" xlink:href="#r0"></use><use x="743" y="1142" xlink:href="#r0"></use><use x="914" y="1142" xlink:href="#r0"></use><use x="971" y="1142" xlink:href="#r0"></use><use x="1085" y="1142" xlink:href="#r0"></use><use x="1256" y="1142" xlink:href="#r0"></use><use x="1313" y="1142" xlink:href="#r0"></use><use x="1427" y="1142" xlink:href="#r0"></use><use x="1541" y="1142" xlink:href="#r0"></use><use x="1655" y="1142" xlink:href="#r0"></use><use x="1769" y="1142" xlink:href="#r0"></use><use x="287" y="1199" xlink:href="#r0"></use><use x="515" y="1199" xlink:href="#r0"></use><use x="629" y="1199" xlink:href="#r0"></use><use x="914" y="1199" xlink:href="#r0"></use><use x="971" y="1199" xlink:href="#r0"></use><use x="1028" y="1199" xlink:href="#r0"></use><use x="1199" y="1199" xlink:href="#r0"></use><use x="1427" y="1199" xlink:href="#r0"></use><use x="1541" y="1199" xlink:href="#r0"></use><use x="1598" y="1199" xlink:href="#r0"></use><use x="1655" y="1199" xlink:href="#r0"></use><use x="1712" y="1199" xlink:href="#r0"></use><use x="1769" y="1199" xlink:href="#r0"></use><use x="401" y="1256" xlink:href="#r0"></use><use x="629" y="1256" xlink:href="#r0"></use><use x="686" y="1256" xlink:href="#r0"></use><use x="743" y="1256" xlink:href="#r0"></use><use x="857" y="1256" xlink:href="#r0"></use><use x="914" y="1256" xlink:href="#r0"></use><use x="1142" y="1256" xlink:href="#r0"></use><use x="1256" y="1256" xlink:href="#r0"></use><use x="1313" y="1256" xlink:href="#r0"></use><use x="1370" y="1256" xlink:href="#r0"></use><use x="173" y="1313" xlink:href="#r0"></use><use x="230" y="1313" xlink:href="#r0"></use><use x="344" y="1313" xlink:href="#r0"></use><use x="515" y="1313" xlink:href="#r0"></use><use x="743" y="1313" xlink:href="#r0"></use><use x="857" y="1313" xlink:href="#r0"></use><use x="1085" y="1313" xlink:href="#r0"></use><use x="1199" y="1313" xlink:href="#r0"></use><use x="1256" y="1313" xlink:href="#r0"></use><use x="1313" y="1313" xlink:href="#r0"></use><use x="1370" y="1313" xlink:href="#r0"></use><use x="1427" y="1313" xlink:href="#r0"></use><use x="1484" y="1313" xlink:href="#r0"></use><use x="1541" y="1313" xlink:href="#r0"></use><use x="629" y="1370" xlink:href="#r0"></use><use x="743" y="1370" xlink:href="#r0"></use><use x="800" y="1370" xlink:href="#r0"></use><use x="857" y="1370" xlink:href="#r0"></use><use x="914" y="1370" xlink:href="#r0"></use><use x="1256" y="1370" xlink:href="#r0"></use><use x="1313" y="1370" xlink:href="#r0"></use><use x="1541" y="1370" xlink:href="#r0"></use><use x="1598" y="1370" xlink:href="#r0"></use><use x="1655" y="1370" xlink:href="#r0"></use><use x="800" y="1427" xlink:href="#r0"></use><use x="857" y="1427" xlink:href="#r0"></use><use x="914" y="1427" xlink:href="#r0"></use><use x="971" y="1427" xlink:href="#r0"></use><use x="1085" y="1427" xlink:href="#r0"></use><use x="1199" y="1427" xlink:href="#r0"></use><use x="1256" y="1427" xlink:href="#r0"></use><use x="1313" y="1427" xlink:href="#r0"></use><use x="1427" y="1427" xlink:href="#r0"></use><use x="1541" y="1427" xlink:href="#r0"></use><use x="1598" y="1427" xlink:href="#r0"></use><use x="1655" y="1427" xlink:href="#r0"></use><use x="1769" y="1427" xlink:href="#r0"></use><use x="629" y="1484" xlink:href="#r0"></use><use x="857" y="1484" xlink:href="#r0"></use><use x="971" y="1484" xlink:href="#r0"></use><use x="1256" y="1484" xlink:href="#r0"></use><use x="1313" y="1484" xlink:href="#r0"></use><use x="1541" y="1484" xlink:href="#r0"></use><use x="1655" y="1484" xlink:href="#r0"></use><use x="1712" y="1484" xlink:href="#r0"></use><use x="629" y="1541" xlink:href="#r0"></use><use x="686" y="1541" xlink:href="#r0"></use><use x="971" y="1541" xlink:href="#r0"></use><use x="1085" y="1541" xlink:href="#r0"></use><use x="1313" y="1541" xlink:href="#r0"></use><use x="1370" y="1541" xlink:href="#r0"></use><use x="1427" y="1541" xlink:href="#r0"></use><use x="1484" y="1541" xlink:href="#r0"></use><use x="1541" y="1541" xlink:href="#r0"></use><use x="1598" y="1541" xlink:href="#r0"></use><use x="1769" y="1541" xlink:href="#r0"></use><use x="686" y="1598" xlink:href="#r0"></use><use x="743" y="1598" xlink:href="#r0"></use><use x="914" y="1598" xlink:href="#r0"></use><use x="971" y="1598" xlink:href="#r0"></use><use x="1028" y="1598" xlink:href="#r0"></use><use x="1085" y="1598" xlink:href="#r0"></use><use x="1199" y="1598" xlink:href="#r0"></use><use x="1256" y="1598" xlink:href="#r0"></use><use x="1484" y="1598" xlink:href="#r0"></use><use x="1598" y="1598" xlink:href="#r0"></use><use x="1655" y="1598" xlink:href="#r0"></use><use x="1712" y="1598" xlink:href="#r0"></use><use x="743" y="1655" xlink:href="#r0"></use><use x="800" y="1655" xlink:href="#r0"></use><use x="914" y="1655" xlink:href="#r0"></use><use x="971" y="1655" xlink:href="#r0"></use><use x="1028" y="1655" xlink:href="#r0"></use><use x="1085" y="1655" xlink:href="#r0"></use><use x="1256" y="1655" xlink:href="#r0"></use><use x="1370" y="1655" xlink:href="#r0"></use><use x="1541" y="1655" xlink:href="#r0"></use><use x="1655" y="1655" xlink:href="#r0"></use><use x="1712" y="1655" xlink:href="#r0"></use><use x="1769" y="1655" xlink:href="#r0"></use><use x="629" y="1712" xlink:href="#r0"></use><use x="743" y="1712" xlink:href="#r0"></use><use x="857" y="1712" xlink:href="#r0"></use><use x="1256" y="1712" xlink:href="#r0"></use><use x="1427" y="1712" xlink:href="#r0"></use><use x="1484" y="1712" xlink:href="#r0"></use><use x="1541" y="1712" xlink:href="#r0"></use><use x="1598" y="1712" xlink:href="#r0"></use><use x="1655" y="1712" xlink:href="#r0"></use><use x="629" y="1769" xlink:href="#r0"></use><use x="686" y="1769" xlink:href="#r0"></use><use x="857" y="1769" xlink:href="#r0"></use><use x="914" y="1769" xlink:href="#r0"></use><use x="1142" y="1769" xlink:href="#r0"></use><use x="1256" y="1769" xlink:href="#r0"></use><use x="1313" y="1769" xlink:href="#r0"></use><use x="1427" y="1769" xlink:href="#r0"></use><use x="1541" y="1769" xlink:href="#r0"></use><use x="1712" y="1769" xlink:href="#r0"></use><svg version="1.1" id="Ebene_1" x="173" y="173" width="399" height="399" viewBox="0 0 699.988 699.986" enable-background="new 0 0 699.988 699.986" xml:space="preserve" shape-rendering="auto">
<path fill="#000000" d="M600.99,0h-100h-99.997h-0.001h-99.997h-99.998h-99.998H1v99.998v99.998v99.998v99.999v99.997v99.998v99.998  h99.999h99.998h99.998h99.997h0.001h99.997h100h99.998v-99.998V499.99v-99.997v-99.999v-99.998V99.998V0H600.99z M600.99,199.996  v99.998v99.999v99.997v99.998h-100h-99.997h-0.001h-99.997h-99.998h-99.998V499.99v-99.997v-99.999v-99.998V99.998h99.998h99.998  h99.997h0.001h99.997h100V199.996z"></path>
</svg>
<svg version="1.0" id="Ebene_1" x="173" y="173" width="399" height="399" viewBox="0 0 699.988 699.988" enable-background="new 0 0 699.988 699.988" xml:space="preserve" shape-rendering="auto">
<polygon fill="#000000" points="399.994,199.997 399.992,199.997 299.996,199.997 199.998,199.997 199.998,299.994 199.998,399.994   199.998,499.991 299.996,499.991 399.992,499.991 399.994,499.991 499.99,499.991 499.99,399.994 499.99,299.994 499.99,199.997 "></polygon>
</svg>
<svg version="1.1" id="Ebene_1" x="1427" y="173" width="399" height="399" viewBox="0 0 699.988 699.986" enable-background="new 0 0 699.988 699.986" xml:space="preserve" shape-rendering="auto">
<path fill="#000000" d="M600.99,0h-100h-99.997h-0.001h-99.997h-99.998h-99.998H1v99.998v99.998v99.998v99.999v99.997v99.998v99.998  h99.999h99.998h99.998h99.997h0.001h99.997h100h99.998v-99.998V499.99v-99.997v-99.999v-99.998V99.998V0H600.99z M600.99,199.996  v99.998v99.999v99.997v99.998h-100h-99.997h-0.001h-99.997h-99.998h-99.998V499.99v-99.997v-99.999v-99.998V99.998h99.998h99.998  h99.997h0.001h99.997h100V199.996z"></path>
</svg>
<svg version="1.0" id="Ebene_1" x="1427" y="173" width="399" height="399" viewBox="0 0 699.988 699.988" enable-background="new 0 0 699.988 699.988" xml:space="preserve" shape-rendering="auto">
<polygon fill="#000000" points="399.994,199.997 399.992,199.997 299.996,199.997 199.998,199.997 199.998,299.994 199.998,399.994   199.998,499.991 299.996,499.991 399.992,499.991 399.994,499.991 499.99,499.991 499.99,399.994 499.99,299.994 499.99,199.997 "></polygon>
</svg>
<svg version="1.1" id="Ebene_1" x="173" y="1427" width="399" height="399" viewBox="0 0 699.988 699.986" enable-background="new 0 0 699.988 699.986" xml:space="preserve" shape-rendering="auto">
<path fill="#000000" d="M600.99,0h-100h-99.997h-0.001h-99.997h-99.998h-99.998H1v99.998v99.998v99.998v99.999v99.997v99.998v99.998  h99.999h99.998h99.998h99.997h0.001h99.997h100h99.998v-99.998V499.99v-99.997v-99.999v-99.998V99.998V0H600.99z M600.99,199.996  v99.998v99.999v99.997v99.998h-100h-99.997h-0.001h-99.997h-99.998h-99.998V499.99v-99.997v-99.999v-99.998V99.998h99.998h99.998  h99.997h0.001h99.997h100V199.996z"></path>
</svg>
<svg version="1.0" id="Ebene_1" x="173" y="1427" width="399" height="399" viewBox="0 0 699.988 699.988" enable-background="new 0 0 699.988 699.988" xml:space="preserve" shape-rendering="auto">
<polygon fill="#000000" points="399.994,199.997 399.992,199.997 299.996,199.997 199.998,199.997 199.998,299.994 199.998,399.994   199.998,499.991 299.996,499.991 399.992,499.991 399.994,499.991 499.99,499.991 499.99,399.994 499.99,299.994 499.99,199.997 "></polygon>
</svg>
</svg>

	<path fill="#000000" d="M88,0H5.7C2.5,0,0,2.5,0,5.7V116c0,3.1,2.5,5.7,5.7,5.7H88c3.1,0,5.7-2.5,5.7-5.7V5.7C93.7,2.5,91.1,0,88,0z   M89.3,86.6c0,1.6-1.3,2.8-2.8,2.8H7.1c-1.6,0-2.8-1.3-2.8-2.8V7.2c0-1.6,1.3-2.8,2.8-2.8h79.4c1.6,0,2.8,1.3,2.8,2.8V86.6z"></path>
	<text id="svg-text-style" x="23" y="111" fill="#ffffff" font-family="Verdana" font-size="11px"><tspan>S</tspan><tspan>c</tspan><tspan>a</tspan><tspan>n</tspan><tspan> </tspan><tspan>m</tspan><tspan>e</tspan></text>
	<svg xmlns="http://www.w3.org/2000/svg" x="4" y="99" version="1.1" width="16" height="16" viewBox="0 0 32 32">
<title>creation-crate-preview</title>
<path fill="#ffffff" d="M9.625 26.688h12.75v-21.375h-12.75zM18.125 3.188h-4.25v1.063h4.25zM21.313 0h-10.625c-2.375 0-4.313 1.938-4.313 4.25v23.5c0 2.313 1.938 4.25 4.313 4.25h10.625c2.375 0 4.313-1.938 4.313-4.25v-23.5c0-2.313-1.938-4.25-4.313-4.25zM23.438 27.75c0 1.188-0.938 2.125-2.125 2.125h-10.625c-1.188 0-2.125-0.938-2.125-2.125v-23.5c0-1.188 0.938-2.125 2.125-2.125h10.625c1.188 0 2.125 0.938 2.125 2.125z"></path>
</svg>

</svg>