<?xml version="1.0" standalone="no"?>
<!DOCTYPE svg PUBLIC "-//W3C//DTD SVG 20010904//EN"
 "http://www.w3.org/TR/2001/REC-SVG-20010904/DTD/svg10.dtd">
<svg version="1.0" xmlns="http://www.w3.org/2000/svg"
 width="2134.000000pt" height="2134.000000pt" viewBox="0 0 2134.000000 2134.000000"
 preserveAspectRatio="xMidYMid meet">
<metadata>
Created by potrace 1.11, written by Peter Selinger 2001-2013
</metadata>
<g transform="translate(0.000000,2134.000000) scale(0.100000,-0.100000)"
fill="#000000" stroke="none">
<path d="M0 10675 l0 -10665 10665 0 10665 0 0 10665 0 10665 -10665 0 -10665
0 0 -10665z m4852 8200 c975 -30 1721 -263 2150 -673 325 -311 519 -704 594
-1207 24 -161 29 -527 10 -760 -16 -197 -80 -722 -88 -731 -3 -2 -272 27 -598
66 -326 38 -594 70 -595 70 -1 0 11 96 26 213 83 637 84 929 8 1167 -40 121
-87 199 -179 290 -68 68 -102 94 -173 128 -176 87 -453 160 -742 196 -271 34
-395 41 -810 40 -420 0 -638 -11 -984 -49 -74 -9 -135 -14 -137 -12 -9 9 -164
1181 -157 1187 21 20 638 69 1003 79 248 8 300 7 672 -4z m-431 -3882 l685 4
29 -594 c15 -326 26 -596 22 -599 -16 -17 -914 -27 -1409 -17 -286 7 -521 13
-522 15 -2 3 51 1203 53 1203 0 0 103 -4 228 -8 126 -5 536 -6 914 -4z m10444
-1553 c573 -32 1093 -104 1628 -226 236 -54 381 -99 535 -165 695 -298 1200
-924 1417 -1754 235 -898 121 -1966 -297 -2788 -226 -443 -521 -782 -870 -999
-226 -141 -631 -303 -963 -387 -326 -82 -592 -115 -940 -115 -265 -1 -381 8
-600 45 -956 161 -1728 696 -2135 1481 -181 350 -276 707 -349 1318 -40 327
-46 448 -45 860 0 501 24 760 105 1164 16 82 27 151 25 154 -8 7 -353 -80
-551 -139 -365 -109 -680 -232 -1010 -394 -820 -403 -1234 -815 -1565 -1558
-313 -704 -483 -1551 -516 -2572 l-6 -201 -522 -17 c-286 -10 -557 -20 -600
-24 l-79 -6 6 304 c27 1262 311 2482 778 3342 301 553 623 932 1091 1284 1038
781 2669 1298 4388 1392 227 12 856 13 1075 1z m3683 -10057 l2 -603 -1795 0
-1795 0 0 605 0 605 1793 -2 1792 -3 3 -602z"/>
<path d="M13910 12239 c-112 -6 -206 -12 -208 -14 -13 -12 -98 -287 -131 -422
-155 -631 -168 -1333 -40 -2103 50 -306 89 -435 187 -624 112 -218 320 -437
547 -576 233 -143 548 -247 850 -280 132 -14 402 -12 546 5 310 36 594 119
878 257 140 67 147 72 251 176 127 126 203 237 301 436 240 488 327 1142 228
1706 -103 589 -398 1007 -818 1160 -211 77 -725 180 -1141 229 -428 50 -1020
70 -1450 50z"/>
</g>
</svg>
