<?xml version="1.0" standalone="no"?>
<!DOCTYPE svg PUBLIC "-//W3C//DTD SVG 20010904//EN"
 "http://www.w3.org/TR/2001/REC-SVG-20010904/DTD/svg10.dtd">
<svg version="1.0" xmlns="http://www.w3.org/2000/svg"
 width="1024.000000pt" height="1024.000000pt" viewBox="0 0 1024.000000 1024.000000"
 preserveAspectRatio="xMidYMid meet">
<metadata>
Created by potrace 1.11, written by Peter Selinger 2001-2013
</metadata>
<g transform="translate(0.000000,1024.000000) scale(0.100000,-0.100000)"
fill="#000000" stroke="none">
<path d="M310 10208 c0 -43 33 -73 90 -83 25 -4 50 -11 55 -16 6 -4 32 -9 59
-10 27 -2 54 -8 60 -14 10 -10 111 -25 181 -27 69 -2 178 13 191 27 11 10 36
15 84 15 38 0 81 6 96 12 22 10 28 10 32 0 6 -19 216 -16 278 5 27 9 53 22 57
30 4 7 16 13 26 13 11 0 21 7 25 15 3 8 14 15 25 15 10 0 21 7 25 15 3 8 13
15 21 15 9 0 13 5 10 10 -7 12 -42 13 -47 2 -1 -4 -34 -26 -73 -47 l-70 -39
-220 -7 c-177 -5 -228 -10 -260 -24 -22 -9 -78 -21 -123 -25 -73 -7 -101 -5
-220 20 -278 58 -274 56 -281 123 -1 4 -5 7 -11 7 -5 0 -10 -15 -10 -32z"/>
<path d="M1900 10228 c0 -4 17 -8 38 -8 21 0 46 -6 57 -14 11 -7 45 -16 75
-18 30 -3 56 -11 58 -17 2 -6 20 -11 41 -11 20 0 45 -6 56 -14 30 -20 130 -26
433 -27 149 -1 275 -5 278 -10 3 -5 23 -9 44 -9 21 0 45 -7 54 -15 8 -8 22
-15 30 -15 14 0 13 3 -3 19 -10 10 -27 32 -37 49 -12 22 -33 37 -68 49 -28 10
-51 25 -54 36 -3 13 -15 17 -53 17 -27 0 -49 -4 -49 -10 0 -5 8 -10 19 -10 10
0 24 -7 31 -15 7 -8 18 -15 24 -15 6 0 29 -9 51 -19 22 -11 49 -23 59 -26 32
-10 14 -12 -61 -7 -53 3 -73 8 -73 18 0 8 -10 14 -25 14 -16 0 -25 -6 -25 -15
0 -12 -18 -15 -107 -15 -193 1 -407 17 -447 34 -21 9 -47 16 -57 16 -10 0 -58
11 -106 25 -84 25 -183 32 -183 13z"/>
<path d="M4432 10209 c-13 -16 -34 -32 -48 -35 -13 -3 -24 -10 -24 -15 0 -5
-18 -12 -40 -15 -22 -4 -37 -10 -35 -15 3 -4 -5 -11 -17 -15 -12 -3 -28 -13
-36 -20 -7 -8 -20 -14 -27 -14 -17 0 -147 -88 -158 -106 -4 -8 -12 -14 -17
-14 -5 0 -21 -11 -36 -25 -16 -14 -44 -33 -63 -41 -20 -9 -54 -24 -77 -35 -23
-10 -44 -19 -48 -19 -4 0 -23 -15 -41 -32 -40 -39 -51 -48 -94 -70 -40 -22
-91 -24 -91 -4 0 8 -13 16 -30 18 -31 5 -34 0 -31 -48 2 -24 -35 -74 -55 -74
-8 0 -14 -4 -14 -9 0 -5 -15 -14 -34 -21 -19 -6 -50 -26 -69 -45 -20 -19 -43
-35 -51 -35 -8 0 -20 -9 -25 -19 -6 -10 -31 -27 -56 -37 -25 -11 -45 -22 -45
-26 0 -4 -24 -19 -52 -34 -82 -40 -98 -50 -92 -56 3 -4 -4 -9 -16 -13 -12 -4
-41 -20 -65 -36 -24 -16 -46 -29 -49 -29 -3 0 -15 -8 -25 -17 -32 -29 -45 -39
-63 -46 -10 -3 -18 -11 -18 -17 0 -5 -5 -10 -11 -10 -6 0 -17 -7 -25 -15 -9
-8 -26 -15 -39 -15 -13 0 -28 -6 -32 -13 -4 -7 -26 -21 -48 -32 -22 -11 -53
-32 -68 -47 -16 -16 -36 -28 -44 -28 -9 0 -29 -13 -45 -30 -15 -16 -35 -30
-43 -30 -8 0 -15 -4 -15 -10 0 -5 -8 -10 -19 -10 -10 0 -30 -9 -44 -20 -14
-11 -30 -20 -37 -20 -6 0 -9 -4 -6 -9 8 -12 -55 -51 -82 -51 -11 0 -22 -7 -26
-15 -3 -8 -10 -15 -16 -15 -6 0 -22 -12 -36 -27 -23 -24 -46 -41 -84 -60 -8
-4 -21 -13 -28 -20 -7 -7 -24 -13 -37 -13 -13 0 -39 -16 -61 -38 -22 -20 -52
-46 -68 -57 -15 -11 -34 -26 -41 -32 -8 -7 -18 -13 -23 -13 -5 0 -19 -9 -32
-20 -13 -11 -34 -20 -47 -20 -27 0 -63 -21 -103 -62 -16 -15 -35 -28 -43 -28
-8 0 -17 -7 -21 -15 -3 -8 -12 -15 -21 -15 -8 0 -15 -4 -15 -10 0 -5 -11 -12
-25 -16 -14 -3 -25 -10 -25 -14 0 -4 -13 -13 -30 -19 -16 -5 -30 -15 -30 -20
0 -6 -7 -11 -15 -11 -7 0 -18 -6 -22 -13 -15 -25 -58 -47 -91 -47 -20 0 -31
-4 -27 -10 4 -6 -7 -13 -22 -16 -16 -3 -33 -15 -38 -27 -13 -26 -82 -66 -117
-67 -16 0 -28 -4 -28 -9 0 -5 -14 -12 -30 -16 -17 -4 -30 -11 -30 -16 0 -5
-12 -12 -27 -15 -15 -4 -34 -13 -41 -21 -7 -7 -22 -13 -32 -13 -10 0 -20 -7
-24 -15 -4 -11 -21 -15 -60 -15 -30 0 -58 -4 -61 -10 -3 -5 -12 -10 -18 -10
-7 0 -6 4 3 10 13 8 12 10 -2 10 -10 0 -18 -4 -18 -10 0 -5 -18 -13 -40 -16
-22 -4 -40 -10 -40 -15 0 -5 -6 -9 -14 -9 -8 0 -23 -14 -33 -31 -11 -18 -29
-33 -45 -36 -16 -3 -28 -9 -28 -13 0 -5 -15 -12 -33 -15 -17 -4 -41 -14 -52
-21 -11 -8 -27 -14 -36 -14 -8 0 -27 -17 -40 -37 -16 -25 -35 -40 -59 -46 -19
-5 -42 -14 -50 -21 -22 -19 -71 -36 -100 -36 -48 1 -105 -13 -113 -26 -4 -8
-15 -14 -22 -14 -8 0 -15 -5 -15 -11 0 -12 10 -11 103 15 32 9 68 16 81 16 13
0 38 10 57 23 53 36 69 40 69 17 0 -11 -5 -20 -11 -20 -12 0 -81 -31 -89 -39
-8 -9 -137 -51 -155 -51 -9 0 -14 -4 -10 -9 3 -5 -5 -11 -17 -13 -13 -2 -24
-10 -26 -19 -2 -13 3 -15 25 -11 15 3 37 11 48 18 11 8 27 14 37 14 10 0 18 4
18 10 0 5 17 12 37 16 21 4 47 13 58 20 11 8 26 14 33 14 7 0 20 7 28 15 9 8
33 15 55 15 26 0 42 5 45 15 4 8 18 15 33 15 15 0 32 5 39 12 14 14 75 38 117
45 16 3 35 12 43 19 7 8 31 14 52 14 21 0 40 5 42 11 2 5 22 13 46 16 23 3 42
9 42 14 0 5 18 12 40 15 22 4 40 10 40 15 0 5 22 11 49 15 28 4 52 12 55 20 4
10 23 14 58 14 41 0 59 5 79 23 29 26 56 44 84 56 12 5 27 16 34 25 8 9 29 16
49 16 19 0 33 3 29 6 -6 6 57 54 70 54 3 0 19 14 35 30 15 17 37 30 47 30 17
0 78 27 91 40 14 14 70 50 79 50 5 0 11 7 15 15 3 8 15 15 26 15 11 0 23 7 26
15 4 8 10 15 15 15 5 0 29 20 52 45 24 25 48 45 53 45 5 0 27 14 48 30 35 26
48 30 107 30 62 0 71 3 99 30 17 17 36 30 43 30 15 1 57 35 57 48 0 5 11 10
24 10 14 0 36 11 49 26 13 14 29 26 35 26 6 0 17 6 24 13 7 7 36 24 63 38 28
13 56 30 63 37 7 6 18 12 23 12 6 0 17 7 25 15 9 8 24 15 34 15 10 0 20 7 24
15 3 8 10 15 16 15 6 0 16 5 23 10 48 41 62 50 74 50 7 0 13 4 13 10 0 5 11
12 25 16 14 3 25 10 25 15 0 5 6 9 13 9 6 0 32 16 56 35 24 19 50 35 57 35 7
0 33 14 57 30 25 17 50 30 56 30 6 0 11 4 11 9 0 5 14 12 30 16 17 4 30 13 30
21 0 8 7 14 15 14 8 0 15 4 15 9 0 5 8 12 18 15 24 9 76 38 82 46 3 3 24 16
48 28 24 12 54 34 66 47 13 14 30 25 39 25 9 0 52 35 96 78 104 101 105 101
142 109 17 3 33 12 36 19 3 8 16 14 28 14 13 0 26 4 30 9 3 5 20 13 38 16 17
4 48 20 68 36 20 16 41 29 47 29 6 0 12 4 14 8 6 15 126 82 147 82 11 0 20 5
19 11 -2 6 22 24 52 40 30 17 66 38 80 47 14 9 41 25 60 35 19 11 45 30 56 43
12 13 29 24 38 24 9 0 24 9 33 20 10 11 23 20 30 20 7 0 13 4 13 9 0 5 15 12
33 16 17 3 42 11 54 17 30 15 47 6 66 -33 14 -29 14 -36 1 -60 -8 -16 -14 -38
-14 -50 0 -12 -16 -38 -36 -57 -31 -31 -43 -35 -92 -37 -32 -2 -60 -3 -64 -4
-3 0 -9 -14 -13 -31 -4 -16 -11 -30 -16 -30 -6 0 -8 -3 -5 -8 2 -4 -2 -22 -9
-39 -10 -22 -23 -34 -42 -38 -15 -4 -46 -13 -68 -21 -23 -8 -62 -14 -88 -14
-39 0 -47 -3 -47 -19 0 -10 -6 -30 -13 -44 -12 -23 -16 -24 -87 -21 -65 3 -77
1 -97 -18 l-22 -21 28 -41 c15 -22 38 -62 51 -88 13 -26 36 -61 51 -78 16 -17
29 -36 29 -41 0 -6 14 -30 30 -54 17 -24 30 -47 30 -52 0 -4 22 -33 50 -63 27
-30 49 -60 50 -65 0 -6 25 -36 55 -68 30 -32 55 -62 55 -67 0 -6 8 -18 18 -27
13 -14 34 -18 85 -18 37 -1 67 2 67 5 0 4 24 8 54 9 48 2 61 -3 113 -36 32
-21 65 -41 73 -44 13 -5 88 25 100 41 13 17 111 80 124 80 8 0 16 3 18 8 4 10
112 82 124 82 5 1 20 14 34 30 14 17 34 30 47 30 13 0 23 5 23 10 0 6 6 10 13
10 7 0 20 9 30 20 9 11 24 20 32 20 8 0 15 5 15 10 0 6 10 15 23 20 33 15 61
33 70 48 4 6 15 12 22 12 8 0 15 4 15 9 0 5 12 13 28 19 15 5 39 21 52 35 14
15 30 27 35 27 6 0 18 9 27 19 18 21 20 16 -44 126 -19 33 -49 81 -66 106 -18
26 -32 56 -32 68 0 11 -8 25 -19 30 -10 6 -26 26 -35 44 -8 19 -22 40 -31 47
-8 7 -15 18 -15 25 0 34 -59 119 -145 209 -52 55 -95 103 -95 107 0 12 -42 18
-67 8 -28 -10 -41 -23 -66 -61 -15 -24 -24 -28 -66 -28 -31 0 -53 5 -61 15 -7
8 -21 15 -31 15 -24 0 -32 15 -24 50 6 28 10 30 51 30 24 0 44 5 44 10 0 6 -6
10 -12 10 -9 0 -8 4 2 10 13 8 11 11 -7 16 -13 4 -23 10 -23 14 0 4 -13 10
-29 13 -46 10 -51 77 -5 77 13 0 24 4 24 10 0 5 12 12 28 16 15 3 43 13 62 22
19 10 36 17 36 17 1 0 5 10 8 23 9 28 -7 29 -34 2 -12 -12 -26 -18 -32 -14 -6
4 -8 3 -5 -3 4 -6 -9 -13 -31 -17 -40 -6 -122 -67 -122 -91 0 -15 48 -69 70
-78 13 -5 13 -7 0 -16 -8 -5 -17 -8 -21 -5 -14 8 -26 -22 -25 -61 1 -36 5 -42
45 -64 29 -16 62 -25 93 -25 43 -1 51 3 95 47 27 26 54 47 61 47 7 0 10 -4 7
-10 -3 -5 0 -10 8 -10 8 0 30 -19 48 -42 18 -24 58 -65 88 -93 36 -32 68 -73
89 -115 19 -36 54 -95 78 -131 24 -37 44 -70 44 -73 0 -4 15 -30 33 -59 49
-76 107 -182 107 -195 0 -5 -13 -18 -29 -29 -77 -48 -207 -138 -216 -148 -5
-6 -25 -17 -42 -24 -18 -7 -33 -17 -33 -22 0 -5 -7 -9 -15 -9 -8 0 -15 -4 -15
-10 0 -5 -4 -10 -9 -10 -5 0 -67 -38 -136 -85 -90 -60 -136 -85 -157 -85 -26
0 -29 -2 -18 -15 10 -12 10 -15 -2 -15 -8 0 -23 -9 -34 -21 -23 -26 -67 -49
-91 -49 -10 0 -43 16 -73 35 l-54 35 -127 0 -128 0 -22 33 c-12 17 -32 41 -44
52 -52 49 -181 222 -215 290 -8 17 -18 32 -21 35 -14 12 -69 100 -63 100 4 0
0 8 -8 18 -8 9 -24 33 -35 53 -28 48 -16 59 63 59 66 0 107 21 119 60 4 11 14
20 24 20 47 0 165 35 190 56 15 12 33 41 40 63 15 53 35 71 76 71 19 0 44 4
57 9 22 8 108 81 96 81 -3 0 1 25 8 56 11 49 11 62 -2 94 -9 23 -24 40 -36 44
-44 11 -190 -35 -218 -69 -7 -8 -17 -15 -22 -15 -5 0 -21 -13 -37 -29 -25 -26
-67 -55 -81 -56 -3 0 -19 -10 -36 -22 -17 -12 -34 -19 -38 -16 -3 4 -12 -1
-19 -10 -6 -8 -39 -30 -72 -47 -33 -17 -94 -53 -135 -81 -71 -47 -114 -69
-275 -143 -49 -23 -94 -55 -147 -106 -43 -40 -93 -83 -112 -94 -50 -31 -149
-95 -235 -152 -42 -28 -115 -72 -163 -98 -48 -26 -117 -67 -153 -91 -51 -34
-76 -45 -106 -45 -35 0 -39 -3 -39 -25 0 -18 -9 -29 -32 -41 -18 -9 -35 -20
-38 -24 -13 -17 -121 -70 -131 -64 -7 4 -9 3 -6 -4 4 -6 -17 -25 -49 -44 -60
-35 -64 -37 -131 -81 -24 -15 -45 -27 -48 -27 -3 0 -13 -7 -22 -16 -54 -47
-109 -74 -157 -74 -66 0 -114 -25 -213 -110 -45 -38 -86 -70 -90 -70 -5 0 -31
-16 -58 -36 -28 -20 -86 -54 -130 -75 -44 -22 -93 -53 -110 -68 -16 -16 -40
-32 -52 -36 -13 -3 -23 -10 -23 -15 0 -5 -7 -7 -15 -4 -8 4 -15 1 -15 -5 0 -6
-6 -11 -13 -11 -6 0 -34 -16 -61 -35 -52 -37 -71 -37 -63 1 2 13 0 24 -4 24
-5 0 -9 -18 -9 -40 0 -37 -2 -40 -37 -49 -21 -6 -48 -11 -61 -11 -13 0 -35 -6
-50 -14 -28 -14 -211 -77 -342 -116 -41 -13 -80 -27 -86 -32 -7 -5 -16 -8 -20
-7 -5 1 -22 -3 -37 -9 -16 -7 -33 -12 -38 -12 -5 0 -9 -4 -9 -10 0 -5 -3 -9
-8 -8 -4 1 -24 -6 -46 -15 -49 -22 -56 -21 -56 3 0 11 4 20 9 20 5 0 22 14 38
30 15 17 32 30 38 30 5 1 28 9 50 20 22 11 44 19 48 20 11 0 64 38 110 78 20
17 44 32 52 32 8 0 15 4 15 8 0 5 6 9 13 9 104 7 150 19 255 70 152 73 162 76
162 57 0 -8 5 -12 11 -9 6 4 8 9 5 12 -7 7 20 33 33 33 6 0 30 18 52 39 24 23
61 44 86 52 24 6 63 26 86 44 23 18 87 60 142 95 55 35 111 73 125 85 14 12
59 38 100 58 41 19 96 51 122 71 26 20 52 36 57 36 6 0 10 6 9 13 -2 6 2 11 9
10 7 -2 17 6 22 16 6 10 23 22 37 25 29 8 104 55 144 92 14 12 50 35 80 50 30
15 77 45 103 66 27 21 60 41 73 44 13 3 24 10 24 15 0 5 5 9 10 9 6 0 16 5 23
10 33 28 218 145 264 167 29 13 55 28 58 33 3 5 26 19 50 31 25 12 45 28 45
36 0 7 5 13 10 13 6 0 57 29 113 66 191 122 228 144 243 144 8 0 12 5 9 10 -3
6 0 10 7 10 7 0 36 18 63 39 28 22 75 54 105 72 30 17 58 36 61 41 3 5 10 8
15 6 5 -1 13 16 19 40 8 37 12 42 30 37 33 -11 96 -5 127 11 16 8 46 30 66 49
21 18 80 53 132 78 52 25 110 60 129 78 19 18 41 34 49 35 7 2 20 11 28 21 7
10 14 14 14 10 0 -4 10 2 22 13 29 26 108 73 125 73 7 0 14 6 17 14 3 7 21 13
41 13 20 0 34 4 31 9 -3 4 5 13 19 19 34 16 105 82 105 98 0 21 -13 16 -38
-17z m-1810 -1361 c-7 -7 -12 -8 -12 -2 0 14 12 26 19 19 2 -3 -1 -11 -7 -17z"/>
<path d="M4720 10231 c0 -6 4 -13 10 -16 6 -3 7 1 4 9 -7 18 -14 21 -14 7z"/>
<path d="M6351 10175 c-22 -46 -37 -65 -50 -65 -10 0 -26 -11 -35 -25 -9 -14
-23 -25 -31 -25 -25 0 -38 -49 -26 -97 12 -46 17 -285 6 -302 -4 -7 7 -11 29
-11 20 0 36 4 36 9 0 5 20 6 44 4 49 -6 110 11 135 36 38 38 48 102 28 193 -1
6 9 17 22 24 13 7 30 27 38 46 18 44 85 103 139 124 24 9 44 20 44 24 0 4 17
12 38 18 38 11 126 94 114 106 -14 15 -40 2 -66 -34 -17 -22 -34 -40 -39 -40
-5 0 -44 -17 -86 -37 -71 -35 -161 -109 -161 -132 0 -6 -15 -27 -32 -47 -30
-34 -33 -44 -34 -103 -1 -36 -3 -69 -4 -73 -1 -5 -3 -11 -5 -15 -12 -46 -42
-59 -142 -65 l-63 -4 0 75 c0 42 -5 116 -11 165 l-11 89 29 25 c15 13 43 36
62 51 30 22 81 112 81 141 0 26 -20 4 -49 -55z"/>
<path d="M7205 10230 c8 -12 -39 -60 -59 -60 -16 0 -86 -65 -86 -80 0 -4 -13
-22 -30 -38 -29 -29 -30 -34 -30 -122 0 -94 12 -139 50 -187 23 -29 24 -43 9
-95 -11 -42 -69 -105 -102 -111 -25 -5 64 -11 107 -8 16 2 35 9 43 17 8 8 30
14 48 14 29 0 34 4 37 27 2 23 9 29 42 35 39 8 70 35 81 69 4 11 11 19 16 19
5 0 9 5 9 12 0 6 6 19 14 27 7 9 23 47 35 85 11 38 32 84 46 102 15 19 23 34
19 34 -3 0 -1 7 6 15 7 8 16 12 21 9 12 -7 11 43 -1 86 -5 19 -6 38 -2 42 5 5
42 9 84 11 42 1 74 5 71 9 -2 5 -3 8 -1 9 2 0 39 2 83 5 44 3 90 10 101 16 16
7 32 7 55 -1 19 -6 58 -13 87 -16 29 -3 62 -10 73 -15 10 -6 19 -8 19 -4 0 3
6 1 14 -5 13 -11 21 -38 33 -111 9 -53 -2 -114 -28 -156 -10 -17 -19 -43 -19
-56 0 -14 -9 -33 -20 -43 -11 -10 -20 -23 -20 -30 0 -13 -82 -105 -93 -105 -4
0 -34 -20 -68 -45 -34 -25 -67 -45 -74 -45 -20 0 -77 -32 -96 -55 -10 -11 -32
-37 -49 -57 -18 -21 -38 -38 -46 -38 -8 0 -14 -6 -14 -14 0 -8 -4 -16 -8 -18
-4 -1 -18 -18 -31 -36 -15 -22 -35 -35 -64 -43 l-42 -10 -1 -94 c-1 -79 -6
-102 -26 -142 -14 -27 -34 -52 -46 -57 -13 -7 -22 -23 -26 -48 -4 -21 -20 -53
-38 -73 -37 -43 -63 -41 -110 6 -16 16 -34 29 -39 29 -5 0 -23 12 -40 28 -17
15 -33 25 -35 22 -2 -3 -10 4 -18 15 -13 18 -14 16 -4 -20 9 -33 7 -50 -9 -95
-14 -40 -17 -63 -11 -85 17 -59 28 -140 22 -167 -11 -55 -87 -42 -115 20 -10
23 -68 70 -73 60 -1 -2 -13 -26 -26 -55 -26 -53 -40 -63 -100 -63 -19 0 -30
-4 -25 -8 6 -4 19 -25 30 -46 21 -41 46 -70 84 -96 12 -8 31 -30 42 -47 12
-18 27 -33 35 -33 8 0 14 -4 14 -10 0 -5 7 -10 16 -10 17 0 68 -48 94 -89 8
-12 20 -30 26 -39 15 -20 6 -102 -13 -124 -14 -15 -13 -17 5 -15 16 1 24 12
33 49 6 27 8 61 4 76 -12 51 -68 124 -119 157 -54 35 -196 175 -196 194 0 6
15 17 33 25 19 8 44 30 57 51 21 33 25 36 35 21 7 -9 17 -16 24 -16 6 0 11 -5
11 -10 0 -6 11 -21 25 -34 22 -20 31 -23 62 -15 54 12 65 32 60 109 -2 36 -9
83 -15 104 -8 31 -8 47 4 75 8 19 12 41 9 48 -12 32 29 22 92 -21 38 -25 76
-46 86 -46 31 0 75 38 87 76 7 19 27 55 45 79 66 86 72 102 79 219 4 66 6 70
35 82 29 12 101 74 101 87 0 3 30 37 68 75 42 43 81 74 105 81 20 7 35 16 32
21 -6 9 33 26 50 21 5 -1 14 4 20 11 5 8 26 24 45 36 44 28 90 68 90 80 0 4 8
17 18 28 25 29 39 56 71 137 38 96 44 141 31 220 -14 77 -45 112 -108 122 -20
3 -62 10 -93 15 -75 14 -123 13 -237 -5 -53 -8 -119 -17 -145 -21 -70 -8 -91
-32 -82 -94 6 -44 4 -52 -30 -99 -20 -28 -49 -86 -65 -130 -31 -90 -33 -92
-73 -144 -27 -35 -59 -55 -95 -61 -7 -1 -12 -4 -11 -7 7 -15 -25 -49 -46 -49
-13 0 -36 -5 -50 -12 -36 -16 -42 -3 -16 33 31 42 33 130 3 162 -32 34 -42 72
-42 159 l0 81 52 69 c31 40 58 66 65 64 7 -3 19 3 25 14 7 11 18 20 24 20 11
0 34 41 34 60 0 6 -7 10 -16 10 -8 0 -12 -4 -9 -10z"/>
<path d="M9515 10188 c-21 -29 -40 -54 -41 -56 -1 -2 -11 5 -22 16 -14 14 -39
21 -93 25 -68 6 -77 4 -111 -19 -42 -29 -50 -47 -78 -169 -11 -49 -25 -106
-30 -126 -6 -20 -10 -59 -10 -87 l0 -51 -47 -4 -48 -3 46 -2 c40 -2 48 -6 58
-29 7 -16 18 -36 26 -46 13 -18 15 -18 50 -1 34 16 36 19 30 54 -4 23 -2 41 4
45 6 3 11 14 11 24 0 13 10 21 33 25 21 4 49 22 73 46 21 22 42 40 46 40 4 0
21 13 39 30 18 16 37 26 42 23 6 -3 7 -1 4 4 -4 6 2 18 13 28 11 10 31 38 45
61 16 28 33 44 45 44 22 0 35 16 20 25 -6 4 8 30 35 64 43 54 57 91 35 91 -5
0 -9 -4 -7 -8 2 -8 -43 -68 -85 -113 -10 -11 -18 -21 -18 -24 0 -6 -64 -90
-100 -131 -14 -17 -41 -39 -58 -50 -18 -10 -32 -22 -32 -26 0 -5 -11 -13 -25
-18 -14 -5 -25 -15 -25 -21 0 -18 -32 -38 -62 -39 -18 0 -28 -5 -28 -15 0 -8
-4 -15 -10 -15 -16 0 -28 -62 -17 -87 7 -16 6 -27 -3 -38 -36 -43 -70 8 -70
104 0 38 4 72 9 75 5 3 12 31 16 61 3 30 11 55 16 55 5 0 9 9 9 19 0 56 26
125 57 155 31 29 38 31 96 28 97 -5 105 -11 82 -65 -10 -23 -4 -28 23 -20 12
3 22 12 22 20 0 15 39 72 77 112 26 27 29 41 10 41 -7 0 -30 -24 -52 -52z"/>
<path d="M8794 10125 c-14 -14 -29 -25 -34 -25 -6 0 -10 -7 -10 -16 0 -12 -6
-15 -21 -11 -16 4 -18 3 -9 -8 9 -11 6 -16 -12 -26 -13 -8 -26 -13 -30 -14 -4
0 -13 -7 -20 -16 -7 -9 -65 -43 -128 -75 -115 -59 -198 -123 -226 -176 -27
-52 -9 -142 35 -175 18 -13 125 -11 155 2 11 5 48 4 85 -2 36 -6 93 -11 126
-12 33 -1 74 -4 91 -7 17 -3 46 1 65 9 41 17 113 77 117 97 1 8 12 38 24 65
16 38 21 73 22 146 1 86 -2 102 -28 157 -16 34 -33 62 -38 62 -4 0 -8 6 -8 13
0 19 -44 37 -91 37 -29 0 -47 -7 -65 -25z m121 -15 c29 -21 60 -76 78 -135 11
-38 12 -67 5 -124 -12 -101 -63 -220 -95 -221 -7 0 -13 -4 -13 -9 0 -19 -59
-26 -165 -20 -60 3 -129 12 -153 19 -36 11 -45 10 -60 -2 -11 -9 -45 -15 -94
-17 l-77 -3 -9 39 c-18 72 -20 83 -13 83 4 0 7 10 8 21 2 24 60 88 81 89 6 0
11 5 10 11 -2 7 8 15 22 19 14 4 45 19 68 34 23 14 48 26 55 26 7 0 22 7 33
15 10 8 29 15 42 15 13 0 22 6 22 15 0 8 4 15 10 15 5 0 30 20 56 45 25 25 49
45 53 45 4 0 14 11 21 25 19 35 77 43 115 15z"/>
<path d="M7360 9940 c0 -11 5 -20 10 -20 6 0 10 9 10 20 0 11 -4 20 -10 20 -5
0 -10 -9 -10 -20z"/>
<path d="M8440 9940 c0 -11 5 -20 10 -20 6 0 10 9 10 20 0 11 -4 20 -10 20 -5
0 -10 -9 -10 -20z"/>
<path d="M0 9632 c0 -16 39 -53 99 -95 14 -9 63 -29 107 -42 l81 -25 -8 -48
c-13 -69 -59 -201 -73 -209 -7 -5 -22 -23 -35 -41 -30 -43 -61 -59 -75 -40
-14 19 -96 12 -96 -8 0 -9 12 -14 35 -14 19 0 46 -5 60 -12 20 -9 31 -8 50 2
14 7 25 18 25 23 0 6 18 27 39 47 25 24 44 54 52 81 7 24 16 49 20 54 4 6 10
31 14 58 4 26 11 50 16 53 5 3 9 14 9 25 0 11 10 24 23 29 l22 9 -23 0 c-13 1
-36 7 -50 15 -15 8 -44 18 -64 21 -21 3 -38 10 -38 14 0 5 -16 11 -36 14 -20
3 -46 17 -59 32 -13 14 -29 25 -35 25 -5 0 -10 6 -10 13 0 6 -11 17 -25 24
-21 9 -25 9 -25 -5z"/>
<path d="M3102 9310 c0 -14 2 -19 5 -12 2 6 2 18 0 25 -3 6 -5 1 -5 -13z"/>
<path d="M10107 9251 c-31 -27 -69 -52 -84 -56 -38 -8 -83 -49 -83 -75 0 -11
5 -20 10 -20 6 0 10 -11 10 -24 0 -56 76 -92 140 -66 25 10 140 137 140 154 0
4 -6 6 -14 6 -8 0 -39 -31 -70 -70 -54 -67 -59 -70 -99 -70 -23 0 -47 4 -53 8
-7 4 -15 32 -19 63 l-7 57 33 7 c38 7 99 36 99 47 0 3 14 20 31 37 22 23 40
31 65 31 19 0 34 5 34 10 0 6 -17 10 -38 10 -32 0 -49 -9 -95 -49z"/>
<path d="M8928 9263 c6 -2 18 -2 25 0 6 3 1 5 -13 5 -14 0 -19 -2 -12 -5z"/>
<path d="M8810 9249 c-43 -17 -69 -50 -90 -113 -11 -34 -19 -64 -17 -68 1 -3
-8 -17 -19 -30 -12 -13 -36 -51 -52 -84 -17 -34 -37 -68 -44 -75 -8 -8 -35
-56 -61 -107 -43 -85 -47 -100 -46 -158 1 -40 7 -68 15 -75 8 -6 14 -19 14
-28 0 -30 53 -82 112 -112 32 -16 64 -29 72 -29 9 0 20 -9 26 -19 7 -14 18
-19 38 -17 15 2 35 4 44 5 22 1 45 36 51 76 17 106 42 184 90 285 54 114 97
254 97 316 0 52 -20 136 -41 171 -35 57 -126 87 -189 62z m112 -32 c7 -7 21
-16 30 -20 32 -11 51 -68 56 -159 3 -66 1 -94 -12 -119 -9 -17 -16 -42 -16
-53 0 -12 -14 -48 -30 -81 -16 -33 -30 -64 -30 -69 0 -11 -42 -99 -51 -106 -7
-6 -20 -57 -20 -80 0 -8 -3 -22 -6 -30 -8 -21 -10 -30 -11 -71 -3 -69 -74
-106 -103 -53 -8 15 -21 24 -36 24 -13 0 -26 7 -29 15 -4 8 -17 15 -29 15 -32
0 -76 40 -103 93 -30 61 -32 175 -2 202 11 10 20 26 20 37 0 10 8 26 18 36 20
20 102 156 102 169 0 5 13 27 30 49 16 21 30 48 30 60 0 11 4 24 9 30 6 5 12
25 16 44 8 52 45 80 105 80 27 0 55 -6 62 -13z"/>
<path d="M9802 9040 c-44 -32 -72 -77 -93 -150 -7 -25 -19 -53 -27 -62 -15
-18 -33 -95 -36 -159 -2 -20 -10 -46 -19 -60 -9 -13 -17 -31 -17 -41 0 -9 -10
-36 -23 -60 -21 -40 -23 -54 -20 -183 2 -153 10 -235 23 -235 18 0 20 -40 4
-77 -25 -57 -24 -85 5 -108 45 -35 72 -30 95 20 9 18 16 47 16 64 0 16 9 52
19 79 15 38 20 76 20 174 1 87 6 137 16 162 8 19 15 53 15 75 0 24 7 46 17 57
9 9 27 35 39 59 18 33 22 52 17 93 -6 54 14 122 50 175 22 32 48 133 40 156
-21 58 -78 67 -141 21z m115 -15 c6 -14 7 -27 2 -31 -5 -3 -9 -18 -9 -34 0
-29 -38 -110 -52 -110 -4 0 -8 -8 -8 -18 0 -11 -7 -33 -16 -51 -14 -28 -15
-93 -3 -136 4 -16 -41 -83 -59 -89 -13 -5 -18 -20 -19 -67 -2 -34 -8 -68 -15
-77 -9 -11 -13 -58 -14 -161 0 -93 -5 -154 -12 -168 -7 -12 -12 -33 -12 -47 0
-14 -4 -26 -10 -26 -5 0 -10 -17 -10 -37 0 -21 -7 -46 -14 -56 -12 -16 -18
-17 -38 -6 -40 21 -41 31 -7 115 10 26 9 39 -6 85 -14 39 -19 85 -19 169 -1
63 -4 120 -8 126 -10 14 9 70 35 107 11 16 17 37 14 49 -4 13 2 28 18 42 20
19 24 33 26 105 2 60 7 86 19 95 23 17 40 52 40 83 0 16 7 37 15 47 8 11 15
28 15 38 0 10 5 18 10 18 6 0 21 11 33 23 41 44 86 49 104 12z"/>
<path d="M2527 8944 c-8 -8 1 -24 14 -24 5 0 9 7 9 15 0 15 -12 20 -23 9z"/>
<path d="M2555 8910 c-8 -13 15 -24 27 -12 6 6 4 11 -6 15 -8 3 -18 2 -21 -3z"/>
<path d="M10193 8565 c-17 -7 -34 -23 -38 -34 -3 -12 -11 -21 -16 -21 -16 0
-10 -20 14 -44 27 -29 87 -43 87 -21 0 10 -11 15 -34 15 -37 0 -46 12 -37 50
5 17 17 28 39 35 18 5 32 15 32 22 0 16 -7 16 -47 -2z"/>
<path d="M250 8235 c0 -8 -5 -15 -12 -15 -9 0 -9 -3 0 -12 7 -7 12 -20 12 -29
0 -10 6 -30 14 -46 23 -45 46 -100 46 -111 0 -6 6 -13 13 -15 10 -4 10 -6 0
-6 -7 -1 -13 -12 -13 -26 0 -23 -4 -25 -46 -25 -41 0 -46 3 -55 29 -6 16 -17
32 -25 35 -8 3 -14 16 -14 30 0 14 -4 28 -10 31 -5 3 -10 15 -10 25 0 21 -30
90 -40 90 -3 0 -14 -10 -24 -21 -18 -21 -17 -24 22 -125 l40 -103 -22 -26
c-24 -28 -62 -33 -91 -11 -10 7 -16 20 -13 27 3 8 0 23 -8 34 -12 17 -14 12
-14 -46 0 -86 22 -117 58 -82 7 7 33 13 57 13 25 0 45 5 48 13 4 10 6 10 6 0
2 -23 52 -15 58 8 6 20 95 69 126 69 7 0 19 11 27 24 11 22 9 32 -21 93 -18
37 -34 81 -35 97 -1 16 -9 33 -18 38 -9 5 -16 20 -16 33 0 18 -5 25 -20 25
-11 0 -20 -7 -20 -15z m91 -258 c-10 -9 -11 -8 -5 6 3 10 9 15 12 12 3 -3 0
-11 -7 -18z m-123 -48 c7 -3 5 -12 -6 -27 -28 -37 -52 -20 -50 35 l2 45 22
-25 c11 -13 26 -26 32 -28z"/>
<path d="M6690 8195 c-7 -8 -27 -20 -46 -27 -24 -8 -31 -15 -24 -23 7 -8 5
-25 -5 -50 -9 -20 -14 -49 -11 -64 14 -67 7 -128 -23 -211 -17 -47 -39 -91
-50 -98 -16 -11 -17 -18 -9 -55 5 -23 14 -51 20 -61 5 -10 10 -61 10 -112 0
-86 2 -94 19 -94 18 0 28 5 62 36 21 19 57 26 93 19 28 -5 34 -10 34 -30 0
-20 5 -25 28 -25 57 -1 85 -41 52 -75 -24 -24 -150 -85 -176 -85 -25 0 -64
-35 -64 -57 0 -7 -4 -13 -9 -13 -12 0 -21 -75 -14 -118 5 -27 13 -37 35 -46
15 -6 28 -14 28 -18 0 -4 41 -8 90 -8 53 0 90 4 90 10 0 6 9 10 21 10 19 0 73
38 137 98 18 16 38 22 71 23 231 2 457 13 462 21 6 9 27 15 56 17 6 1 14 14
18 30 3 16 14 36 23 43 11 9 14 10 8 1 -9 -17 4 -16 27 1 10 8 26 12 36 9 15
-4 19 5 27 59 8 59 11 63 37 66 29 4 67 -21 67 -42 0 -25 19 -37 58 -40 52 -4
92 -39 92 -80 0 -16 3 -26 7 -22 10 9 14 49 13 118 -1 55 0 56 29 63 43 9 64
0 79 -35 17 -36 29 -38 42 -5 5 14 24 31 43 39 19 8 38 19 41 25 10 15 51 14
65 -3 6 -7 31 -16 56 -18 43 -5 75 -25 75 -47 0 -6 16 -11 35 -11 19 0 35 5
35 10 0 6 6 10 13 10 20 0 53 42 72 93 22 57 37 67 108 67 43 0 58 -4 75 -23
12 -13 19 -27 15 -30 -3 -4 25 -7 64 -7 51 0 74 4 83 15 7 8 22 15 34 15 11 0
39 7 61 15 22 8 63 14 90 15 43 0 54 4 75 30 18 22 33 30 57 30 18 0 33 4 33
9 0 5 10 13 22 17 20 6 20 8 5 19 -9 7 -17 20 -17 29 0 21 75 96 96 96 8 0 18
8 21 17 4 10 19 31 34 48 16 16 41 45 58 64 l30 34 28 -18 c15 -10 38 -29 49
-44 18 -22 20 -27 7 -36 -8 -6 -15 -19 -17 -29 -1 -9 -7 -21 -12 -24 -5 -4
-14 -16 -20 -27 -6 -11 -17 -20 -25 -20 -7 0 -19 -11 -25 -23 -6 -13 -17 -29
-23 -35 -6 -6 -11 -26 -11 -44 0 -21 -6 -36 -18 -42 -10 -5 -29 -32 -42 -60
-19 -43 -29 -52 -57 -57 -23 -4 -33 -12 -33 -25 0 -29 -39 -49 -96 -49 -37 0
-54 -4 -58 -15 -3 -8 -15 -15 -26 -15 -12 0 -28 -7 -36 -15 -9 -8 -31 -15 -50
-15 -20 0 -42 -7 -50 -15 -9 -8 -27 -15 -42 -15 -15 0 -36 -7 -46 -15 -11 -8
-39 -15 -63 -15 -32 0 -43 -4 -43 -15 0 -8 -6 -15 -14 -15 -8 0 -18 -9 -21
-20 -10 -32 -38 -40 -135 -38 -61 2 -93 -1 -98 -9 -4 -6 -20 -15 -35 -18 -26
-7 -27 -10 -27 -70 0 -44 -5 -66 -15 -75 -9 -7 -13 -15 -10 -18 8 -9 169 -1
175 8 3 5 37 12 75 16 38 4 80 13 94 21 14 7 33 13 42 13 9 0 19 7 23 15 3 8
12 15 19 15 8 0 20 7 27 15 7 8 23 15 36 15 22 0 40 12 102 68 14 12 36 22 49
22 13 0 22 4 19 9 -3 5 17 12 45 15 37 5 60 15 83 36 28 27 38 30 99 30 39 0
67 4 67 10 0 6 16 10 35 8 19 -1 35 -6 35 -10 0 -14 39 -9 65 8 25 16 85 12
85 -7 0 -5 21 -9 46 -9 27 0 43 4 39 10 -3 6 1 10 10 10 35 0 128 41 158 69
17 17 37 31 44 31 7 0 13 7 13 15 0 8 12 22 26 32 39 25 184 169 184 182 0 6
4 11 8 11 11 0 12 39 1 45 -12 8 -12 95 0 95 5 0 10 26 11 58 4 156 6 162 50
156 23 -4 30 -1 30 10 0 20 -48 22 -73 4 -25 -19 -46 -145 -50 -301 l-2 -78
-51 -47 c-29 -26 -91 -83 -139 -127 -98 -90 -112 -99 -198 -127 -52 -17 -66
-18 -103 -8 -24 7 -58 9 -76 6 -40 -9 -55 -9 -140 -1 -49 4 -68 3 -68 -5 0 -8
-15 -11 -45 -8 -28 2 -45 -1 -45 -8 0 -6 -12 -17 -27 -25 -16 -8 -31 -18 -34
-22 -3 -5 -12 -9 -20 -11 -56 -10 -131 -40 -150 -61 -13 -13 -29 -25 -35 -25
-7 0 -14 -7 -18 -15 -3 -8 -12 -15 -20 -15 -8 0 -39 -13 -69 -29 -31 -16 -58
-27 -61 -23 -3 3 -6 0 -6 -6 0 -6 -26 -16 -57 -22 -32 -6 -74 -16 -93 -21 -90
-25 -134 -28 -153 -11 -27 24 -19 80 16 106 24 18 43 21 122 21 93 0 94 0 132
35 21 19 39 38 41 43 2 4 15 7 28 7 14 0 41 7 61 15 20 8 63 22 97 31 34 9 92
29 130 45 37 16 79 29 93 29 37 0 94 30 103 55 5 12 21 27 37 34 29 12 104
121 118 171 12 47 28 69 56 81 16 6 29 17 29 25 0 20 32 84 43 84 13 0 -3 61
-22 80 -26 27 -90 62 -100 55 -6 -3 -7 -13 -4 -22 5 -12 2 -15 -9 -11 -15 6
-37 -13 -70 -62 -18 -25 -18 -25 -18 -2 0 12 -4 22 -10 22 -5 0 -10 -15 -10
-33 0 -26 -8 -39 -44 -67 -53 -42 -68 -64 -75 -110 -5 -28 -13 -37 -36 -45
-17 -5 -44 -20 -62 -32 -17 -13 -42 -23 -56 -23 -44 0 -168 -29 -190 -45 -29
-20 -123 -20 -130 -1 -11 29 -67 48 -123 44 -63 -5 -84 -22 -119 -92 -14 -28
-37 -60 -52 -70 -25 -18 -28 -18 -52 -3 -44 28 -95 49 -118 49 -13 0 -23 4
-23 9 0 13 -36 20 -64 13 -14 -3 -23 -11 -19 -17 3 -6 1 -7 -6 -3 -6 4 -28 -6
-49 -22 -37 -30 -37 -30 -61 -11 -30 25 -92 25 -114 1 -9 -10 -21 -36 -26 -58
-8 -35 -10 -37 -17 -15 -6 20 -12 23 -44 18 -35 -4 -40 -2 -66 34 -24 32 -35
39 -65 39 -43 0 -63 -19 -78 -77 -10 -38 -16 -43 -60 -58 -32 -10 -53 -24 -62
-42 -25 -47 -65 -55 -299 -60 -118 -2 -232 -8 -252 -14 -21 -5 -59 -28 -85
-51 -61 -53 -116 -78 -173 -78 -52 0 -118 14 -132 28 -15 15 -17 82 -3 116 17
40 29 50 80 66 48 15 121 55 153 83 33 30 30 81 -5 104 -35 22 -49 33 -75 57
-30 27 -95 25 -142 -3 -20 -13 -39 -21 -42 -19 -2 3 -6 39 -7 81 -2 41 -8 81
-14 89 -10 12 -17 53 -14 86 2 21 29 13 34 -10 3 -13 5 0 4 27 0 28 8 68 18
90 37 85 44 122 35 182 -16 95 18 182 71 183 9 0 30 -16 45 -36 38 -48 100
-83 185 -105 38 -10 75 -21 81 -25 7 -4 2 6 -10 23 -21 30 -55 43 -109 43 -28
0 -73 30 -128 86 -47 48 -69 58 -85 39z"/>
<path d="M8269 8174 c-6 -7 -49 -32 -96 -54 -104 -51 -325 -194 -315 -205 4
-4 1 -6 -7 -3 -28 8 -101 -164 -85 -201 4 -9 8 -18 8 -21 1 -3 14 -21 29 -41
26 -31 34 -35 74 -34 29 1 54 10 71 24 15 11 55 36 89 53 34 17 60 35 57 40
-3 4 1 9 8 10 25 2 33 4 55 12 26 8 343 16 343 8 0 -2 -8 -11 -17 -18 -17 -12
-17 -13 3 -14 14 0 24 8 28 23 3 12 19 29 35 39 44 25 65 72 65 148 0 103 -55
181 -159 225 -46 19 -172 25 -186 9z m204 -46 c18 -13 34 -26 35 -30 2 -5 10
-8 18 -8 8 0 20 -12 26 -27 7 -16 18 -35 25 -44 22 -27 16 -169 -7 -169 -5 0
-12 -9 -15 -20 -4 -12 -18 -23 -36 -27 -16 -3 -27 -9 -24 -13 2 -4 -9 -7 -24
-6 -16 1 -27 4 -24 9 2 4 -48 7 -111 7 -146 0 -234 -19 -276 -60 -18 -18 -41
-30 -57 -30 -16 0 -37 -12 -55 -30 -15 -16 -35 -30 -43 -30 -8 0 -15 -4 -15
-10 0 -21 -34 -9 -61 21 -47 53 -47 95 3 179 5 8 11 23 15 33 3 10 18 24 34
33 16 8 29 19 29 24 0 6 7 10 15 10 8 0 15 5 15 10 0 6 5 10 11 10 7 0 34 16
60 35 27 19 56 35 64 35 8 0 15 3 15 8 0 10 57 40 93 48 15 3 27 10 27 14 0 4
17 17 38 28 56 31 181 30 225 0z"/>
<path d="M1275 7863 c-82 -6 -99 -25 -92 -103 4 -51 1 -67 -23 -116 -23 -46
-26 -60 -17 -75 7 -11 20 -20 29 -20 33 -3 37 -4 50 -16 7 -8 37 -13 70 -13
58 0 58 0 58 30 0 17 9 48 20 70 18 35 24 39 62 42 41 3 43 5 40 31 -5 38
-113 182 -132 175 -3 -1 -32 -3 -65 -5z m103 -71 c27 -31 62 -86 62 -99 0 -1
-10 -3 -23 -3 -28 0 -70 -45 -86 -91 -14 -44 -39 -53 -96 -37 -64 18 -69 27
-44 82 13 31 21 71 22 114 l2 67 40 6 c64 8 88 1 123 -39z"/>
<path d="M7990 7630 c0 -11 5 -20 10 -20 6 0 10 9 10 20 0 11 -4 20 -10 20 -5
0 -10 -9 -10 -20z"/>
<path d="M6828 7463 c6 -2 18 -2 25 0 6 3 1 5 -13 5 -14 0 -19 -2 -12 -5z"/>
<path d="M9677 6943 c-16 -8 -62 -48 -103 -89 -41 -40 -109 -100 -152 -132
-43 -33 -83 -67 -91 -76 -7 -9 -18 -16 -23 -16 -6 0 -24 -10 -41 -22 -41 -30
-176 -98 -193 -98 -26 0 -125 -42 -152 -65 -34 -29 -128 -43 -163 -24 -13 6
-49 37 -79 67 -73 74 -144 105 -220 98 -88 -8 -133 -18 -148 -32 -7 -8 -21
-14 -30 -14 -9 0 -47 -19 -83 -43 -96 -62 -125 -77 -146 -77 -11 0 -23 -3 -26
-6 -19 -19 -132 -56 -197 -64 -41 -5 -109 -14 -150 -19 -112 -13 -153 -27
-233 -75 -40 -23 -97 -57 -127 -74 -113 -63 -234 -222 -245 -321 -13 -120 -67
-177 -164 -174 -31 1 -139 4 -241 8 l-185 6 -120 59 c-323 158 -303 154 -1020
211 -66 5 -203 13 -305 18 -102 6 -196 13 -210 17 -23 7 -57 32 -182 132 -59
46 -76 74 -167 256 l-80 163 -52 22 c-55 22 -104 27 -114 11 -3 -5 -23 -17
-43 -27 -40 -18 -183 -158 -223 -218 -13 -19 -35 -38 -49 -42 -14 -3 -40 -17
-58 -30 -31 -23 -32 -26 -26 -76 9 -85 41 -134 164 -258 166 -166 240 -222
336 -253 44 -13 101 -27 128 -31 49 -7 59 -10 133 -40 42 -17 60 -47 39 -63
-6 -5 -31 -20 -56 -35 -25 -14 -63 -42 -85 -62 -38 -34 -40 -38 -40 -93 1 -66
15 -92 91 -167 143 -142 201 -252 223 -422 13 -105 5 -129 -46 -139 -41 -8
-273 13 -313 28 -14 6 -59 18 -100 29 -176 44 -222 49 -431 49 -274 0 -267 3
-391 -167 -57 -77 -81 -91 -140 -77 -82 17 -124 63 -133 145 -9 80 -32 119
-87 146 -87 44 -124 48 -213 24 -62 -17 -86 -29 -108 -54 -56 -62 -60 -84 -57
-292 4 -337 5 -329 -15 -371 -22 -45 -112 -120 -170 -141 -85 -30 -101 -33
-148 -27 -81 10 -137 76 -137 159 0 19 -4 35 -9 35 -5 0 -14 12 -19 28 -19 50
-97 126 -167 162 -60 31 -78 35 -164 38 -106 4 -157 -11 -215 -62 -16 -14 -32
-26 -35 -26 -12 0 -158 -145 -213 -210 -85 -103 -157 -199 -177 -239 -44 -84
-51 -257 -20 -436 15 -88 9 -127 -21 -142 -17 -9 -79 -13 -197 -13 l-172 0
-25 33 c-42 55 -49 85 -47 212 2 115 -3 153 -43 324 -26 115 -79 150 -141 94
l-30 -26 0 -206 c0 -184 -2 -209 -18 -233 -25 -37 -71 -44 -141 -24 -48 14
-59 22 -76 56 -26 51 -26 123 1 213 12 40 25 77 29 82 5 6 20 68 34 138 14 71
30 137 36 147 18 34 12 115 -11 144 -17 22 -28 26 -72 26 -58 0 -111 -13 -176
-42 -24 -11 -77 -22 -117 -25 -68 -5 -74 -8 -74 -28 0 -22 3 -22 68 -18 71 5
92 10 186 42 33 12 80 21 106 21 40 0 48 -4 58 -25 9 -20 8 -34 -9 -72 -11
-27 -27 -82 -34 -123 -16 -91 -32 -158 -44 -185 -46 -103 -60 -198 -40 -275
22 -85 91 -130 199 -130 68 0 88 9 112 49 22 34 23 46 24 239 0 187 2 204 20
222 37 37 51 6 94 -204 13 -66 16 -116 12 -195 -4 -101 -3 -110 22 -164 15
-31 41 -70 57 -87 l31 -30 179 0 c189 0 203 3 252 48 32 31 34 57 11 186 -23
131 -23 269 0 336 33 96 127 221 292 385 158 157 223 192 332 180 124 -15 191
-52 260 -146 32 -43 45 -72 52 -116 8 -50 16 -64 60 -108 50 -49 50 -50 122
-53 84 -4 192 28 237 70 14 13 40 34 58 46 36 26 59 65 79 137 11 40 11 73 3
170 -20 226 -6 379 38 417 78 65 171 77 255 31 58 -31 78 -64 78 -127 0 -61
28 -105 92 -143 61 -35 122 -48 166 -32 28 9 75 62 154 171 15 21 45 46 66 57
35 18 51 19 272 11 220 -7 243 -10 355 -40 143 -38 326 -69 410 -70 60 0 94
13 122 50 22 27 10 223 -16 285 -54 127 -91 182 -201 298 -65 69 -90 111 -90
152 1 41 22 64 108 114 75 45 90 67 78 116 -11 44 -116 94 -231 110 -78 10
-181 50 -223 85 -188 160 -269 240 -316 314 -30 47 -36 66 -34 99 3 37 6 42
36 51 36 10 50 22 161 146 75 82 165 150 200 150 10 0 34 -6 53 -14 35 -15 41
-26 167 -286 24 -50 91 -127 151 -175 14 -11 46 -36 70 -55 74 -58 90 -62 285
-71 99 -4 203 -12 230 -18 28 -5 169 -17 315 -26 263 -15 347 -25 447 -51 28
-8 59 -14 68 -14 22 0 241 -97 285 -127 19 -12 39 -23 45 -23 5 0 24 -8 40
-17 24 -13 62 -17 197 -19 98 -1 182 -7 204 -14 55 -19 137 -6 189 30 56 39
81 83 94 171 10 60 19 83 55 133 55 77 129 147 192 181 27 14 74 41 104 60 30
19 60 36 65 38 57 22 98 29 205 37 114 9 189 23 215 40 6 4 42 18 80 30 39 13
110 48 160 79 86 53 231 111 279 111 43 0 131 -52 188 -110 70 -73 114 -89
195 -72 30 6 67 22 83 36 16 13 62 34 102 46 128 39 239 99 372 204 121 94
131 102 195 169 31 33 68 65 83 73 59 31 178 7 178 -36 0 -76 24 -283 37 -320
21 -60 36 -75 106 -111 58 -29 102 -32 132 -9 6 4 29 11 53 15 36 6 42 10 42
32 0 24 -2 25 -37 18 -21 -4 -43 -11 -50 -17 -7 -5 -34 -11 -60 -11 -39 -2
-56 4 -89 27 -51 37 -60 67 -74 241 -15 172 -22 192 -74 216 -49 22 -139 23
-179 2z"/>
<path d="M7638 6863 c7 -3 16 -2 19 1 4 3 -2 6 -13 5 -11 0 -14 -3 -6 -6z"/>
<path d="M2173 6161 c-19 -31 -10 -56 20 -55 93 2 106 4 112 23 12 38 -4 51
-64 51 -44 0 -59 -4 -68 -19z m77 -21 c-20 -13 -53 -13 -45 0 3 6 18 10 33 10
21 0 24 -2 12 -10z"/>
<path d="M6709 6029 c-16 -5 -5 -7 34 -8 31 -1 57 1 57 3 0 8 -67 11 -91 5z"/>
<path d="M6815 5990 c4 -6 11 -8 16 -5 14 9 11 15 -7 15 -8 0 -12 -5 -9 -10z"/>
<path d="M7845 5950 c-3 -5 -17 -10 -31 -10 -29 0 -59 -28 -68 -64 -3 -14 -11
-26 -16 -26 -6 0 -6 -9 -1 -22 11 -30 20 -114 22 -213 2 -44 5 -84 8 -90 11
-21 9 -38 -9 -71 -11 -18 -17 -40 -14 -48 3 -8 1 -17 -5 -21 -6 -3 -11 -21
-11 -39 0 -47 -26 -66 -88 -66 -40 0 -52 4 -52 15 0 8 -7 15 -15 15 -8 0 -15
5 -15 11 0 6 -16 26 -35 45 -28 27 -43 34 -75 34 -44 0 -109 -28 -110 -47 0
-7 -3 -13 -8 -13 -10 0 -93 -108 -96 -125 -1 -8 -5 -18 -9 -21 -4 -4 -7 -22
-7 -39 0 -18 -7 -38 -15 -45 -8 -7 -15 -19 -15 -26 0 -8 -3 -14 -7 -14 -5 0
-23 -14 -42 -30 -18 -17 -42 -30 -52 -30 -11 0 -19 -4 -19 -9 0 -5 -13 -12
-29 -16 -16 -3 -32 -12 -35 -20 -3 -9 -19 -13 -47 -12 -41 2 -41 2 -44 -36 -1
-22 -6 -42 -11 -45 -5 -4 -14 -16 -20 -27 -14 -25 -83 -74 -105 -75 -9 0 -30
-7 -45 -15 -16 -8 -37 -15 -46 -15 -18 0 -98 -99 -98 -121 0 -6 -13 -31 -30
-56 -16 -24 -30 -46 -30 -49 0 -3 -13 -19 -30 -36 -16 -16 -30 -34 -30 -39 0
-5 -20 -29 -45 -55 -25 -25 -45 -48 -45 -52 0 -4 -14 -21 -30 -39 -17 -18 -30
-37 -30 -42 0 -6 -5 -10 -12 -9 -6 2 -16 -14 -21 -34 -5 -21 -13 -38 -18 -38
-5 0 -9 -5 -9 -10 0 -19 -43 -72 -127 -158 -46 -46 -83 -87 -83 -92 0 -4 -6
-10 -13 -13 -8 -3 -22 -27 -31 -54 -10 -26 -31 -72 -47 -100 -16 -29 -29 -61
-29 -71 0 -30 36 -52 88 -52 26 -1 58 -7 72 -15 14 -8 41 -14 60 -15 54 0 80
-23 80 -71 0 -37 -2 -39 -29 -39 -17 0 -33 -5 -36 -10 -7 -12 -65 -10 -65 2 0
12 -228 10 -232 -3 -2 -6 -52 -13 -118 -16 -64 -3 -118 -11 -122 -17 -4 -5
-18 -11 -31 -11 -28 -2 -55 -27 -82 -79 -11 -21 -30 -49 -43 -63 -42 -46 -54
-71 -44 -89 15 -27 -14 -104 -40 -104 -10 0 -17 -4 -13 -9 3 -6 -2 -14 -12
-20 -15 -8 -13 -13 22 -46 22 -21 67 -57 100 -81 80 -58 110 -83 154 -121 20
-18 39 -33 44 -33 4 0 7 -7 7 -15 0 -9 7 -18 15 -21 8 -4 15 -11 15 -18 0 -6
8 -19 18 -28 9 -9 31 -33 47 -53 17 -19 52 -59 78 -88 27 -29 59 -68 72 -87
30 -45 121 -140 133 -140 5 0 15 -7 22 -15 7 -8 21 -15 31 -15 11 0 19 -7 19
-15 0 -12 14 -15 65 -15 36 0 65 4 65 10 0 5 12 13 28 16 15 4 29 11 32 15 5
7 26 13 60 18 3 1 14 21 25 46 11 25 23 45 26 45 3 0 12 18 19 40 7 22 21 48
32 59 10 11 18 25 18 31 0 6 7 13 15 16 8 4 15 17 15 30 0 12 6 27 14 31 7 4
16 19 19 33 3 14 8 34 11 45 13 46 27 97 34 128 16 58 36 92 60 95 12 2 22 10
22 18 0 8 8 14 19 14 10 0 24 7 31 15 7 8 17 15 22 15 5 0 16 7 24 15 9 8 24
15 35 15 10 0 19 4 19 9 0 5 11 12 25 15 14 4 25 11 25 16 0 6 10 15 23 20 31
14 55 31 89 63 16 15 32 27 36 27 5 0 17 24 27 53 10 28 25 63 32 77 7 14 13
39 13 55 0 17 7 39 16 50 25 33 9 90 -38 136 -50 49 -60 46 -139 -32 -60 -59
-95 -74 -116 -46 -17 22 -31 91 -29 143 1 42 7 56 30 78 16 14 37 26 47 26 9
0 19 3 21 8 3 7 90 52 102 52 4 0 20 12 36 28 16 15 34 32 40 37 37 33 121
134 134 159 99 203 94 190 99 290 6 111 17 132 67 131 41 0 60 11 60 35 0 10
7 23 15 30 8 7 15 21 15 32 0 19 45 158 61 189 5 9 20 20 34 23 14 4 25 11 25
17 0 14 26 39 40 39 6 0 49 37 95 83 46 45 107 104 135 130 27 26 50 54 50 62
0 8 9 24 20 35 12 12 18 25 14 31 -3 6 3 19 15 30 12 11 21 29 21 39 0 11 3
20 8 20 11 0 42 59 42 80 0 11 8 24 18 29 10 5 24 29 32 53 23 77 52 163 61
183 5 11 11 36 14 55 4 19 10 37 15 40 4 3 11 23 15 45 4 22 11 45 15 50 5 6
10 24 11 41 4 35 -19 64 -49 64 -11 0 -25 7 -32 15 -7 8 -21 15 -32 15 -10 0
-21 6 -24 14 -3 8 -28 17 -57 20 -28 4 -54 11 -57 15 -3 5 -23 11 -46 13 -23
3 -46 8 -52 12 -6 3 -13 2 -17 -4z m110 -50 c8 -6 18 -9 23 -6 5 3 38 -9 73
-27 35 -18 79 -37 97 -44 24 -8 32 -17 32 -35 0 -21 -33 -133 -66 -218 -7 -19
-24 -71 -38 -115 -25 -80 -105 -241 -129 -260 -7 -5 -18 -28 -25 -51 -6 -22
-21 -49 -32 -59 -11 -10 -17 -21 -15 -25 6 -9 -241 -250 -255 -250 -6 0 -35
-24 -65 -53 -54 -52 -82 -110 -114 -233 -12 -45 -55 -96 -80 -93 -30 3 -42 -1
-36 -10 3 -6 -4 -15 -15 -21 -15 -8 -20 -21 -20 -53 -1 -94 -19 -163 -70 -270
-46 -94 -64 -120 -139 -195 -63 -63 -100 -92 -136 -106 -58 -23 -141 -80 -155
-106 -12 -23 -13 -122 0 -175 10 -44 40 -75 73 -75 24 0 106 60 107 78 0 6 6
12 13 12 8 0 22 9 32 20 18 19 18 19 52 -14 37 -36 45 -75 24 -127 -5 -15 -7
-30 -4 -33 4 -3 1 -6 -6 -6 -7 0 -9 -4 -6 -10 3 -5 1 -10 -4 -10 -6 0 -11 -10
-12 -22 -2 -66 -73 -158 -147 -194 -18 -8 -30 -19 -27 -24 3 -6 -1 -7 -9 -4
-9 3 -16 2 -16 -3 0 -5 -27 -22 -59 -37 -33 -15 -62 -34 -65 -42 -3 -7 -12
-14 -20 -14 -26 0 -104 -62 -117 -91 -7 -17 -16 -26 -23 -22 -6 4 -5 -1 2 -10
14 -17 8 -57 -9 -57 -5 0 -9 -12 -9 -28 0 -15 -5 -43 -11 -62 -5 -19 -12 -44
-14 -55 -3 -11 -9 -21 -15 -23 -5 -2 -10 -12 -10 -22 0 -10 -13 -32 -30 -48
-16 -17 -30 -35 -30 -41 0 -14 -40 -90 -51 -97 -5 -3 -9 -14 -9 -25 0 -10 -4
-19 -10 -19 -5 0 -10 -6 -10 -14 0 -18 -134 -76 -177 -76 -44 0 -124 51 -183
117 -198 221 -300 346 -295 360 2 7 0 12 -4 10 -10 -2 -131 95 -131 106 0 4
-7 7 -15 7 -7 0 -18 6 -22 13 -4 7 -30 29 -58 49 -27 20 -61 48 -74 62 -23 24
-23 27 -8 44 25 28 49 92 43 117 -4 15 3 31 23 53 16 17 40 53 53 79 12 26 32
55 43 65 25 20 110 38 186 38 32 0 69 4 83 10 39 15 116 24 171 20 185 -14
235 3 235 79 0 42 -7 54 -39 71 -26 13 -123 38 -179 46 -54 7 -73 21 -63 47
37 96 89 186 139 240 32 34 73 81 91 105 19 23 38 42 43 42 4 0 8 -16 8 -35 0
-24 5 -35 15 -35 18 0 21 51 3 79 -9 15 -6 27 18 66 16 26 41 61 55 76 15 15
24 30 22 33 -3 3 8 20 25 38 80 86 167 200 203 265 22 39 46 77 54 83 8 7 15
19 15 27 0 14 97 63 125 63 8 0 37 16 64 35 43 31 79 82 95 138 3 9 14 17 25
17 23 0 94 31 99 43 2 4 14 7 26 7 13 0 38 15 57 34 18 19 36 33 40 31 9 -6
45 65 59 120 7 28 19 57 27 65 8 8 30 37 50 63 39 51 77 77 114 77 19 0 149
-93 157 -112 6 -12 81 -9 105 4 32 17 44 37 58 93 6 28 20 75 30 106 14 42 16
65 9 90 -5 19 -11 66 -14 104 -4 39 -9 97 -12 130 -4 49 -1 66 15 93 13 19 29
32 41 32 12 0 19 4 16 8 -7 12 103 -4 119 -18z"/>
<path d="M7780 5850 c0 -5 12 -10 28 -9 24 0 25 1 7 9 -27 12 -35 12 -35 0z"/>
<path d="M6348 4163 c6 -2 18 -2 25 0 6 3 1 5 -13 5 -14 0 -19 -2 -12 -5z"/>
<path d="M5645 2870 c4 -6 11 -8 16 -5 14 9 11 15 -7 15 -8 0 -12 -5 -9 -10z"/>
<path d="M9760 5337 c3 -3 30 -8 60 -11 30 -4 57 -11 58 -16 2 -6 8 -10 13
-10 11 0 72 -42 77 -52 2 -5 10 -8 17 -8 7 0 15 -7 19 -15 3 -8 14 -15 25 -15
11 0 26 -6 33 -14 8 -7 24 -16 35 -20 12 -4 45 -29 73 -56 29 -28 56 -50 61
-50 16 0 9 30 -8 37 -15 6 -15 7 3 14 16 6 15 8 -7 8 -15 1 -29 8 -32 16 -4 8
-53 42 -111 75 -128 75 -138 85 -86 86 22 1 37 -2 35 -6 -3 -4 14 -8 37 -8 23
-1 59 -4 81 -7 62 -11 97 -12 97 -3 0 4 -7 8 -15 8 -8 0 -15 4 -15 8 0 5 -46
14 -102 21 -106 13 -356 26 -348 18z"/>
<path d="M10175 5240 c4 -6 11 -8 16 -5 14 9 11 15 -7 15 -8 0 -12 -5 -9 -10z"/>
<path d="M10193 5183 c9 -2 25 -2 35 0 9 3 1 5 -18 5 -19 0 -27 -2 -17 -5z"/>
<path d="M9214 5121 c3 -5 -16 -12 -44 -16 -28 -4 -47 -11 -44 -16 3 -5 -6 -9
-19 -9 -23 0 -67 -29 -67 -45 0 -14 -78 -85 -93 -85 -8 0 -27 -13 -40 -30 -14
-16 -29 -30 -34 -30 -4 0 -17 -19 -27 -42 -23 -50 -46 -78 -63 -78 -7 0 -13
-6 -13 -14 0 -8 -12 -17 -27 -19 -22 -3 -20 -4 11 -6 27 -1 37 3 33 12 -3 8 5
14 21 15 14 1 29 7 32 13 4 5 32 13 63 16 32 3 57 10 57 14 0 5 7 9 15 9 8 0
24 9 35 20 11 11 25 20 30 20 6 0 10 11 10 25 0 14 7 28 15 31 8 4 15 11 15
18 0 6 18 31 41 56 22 25 55 61 73 82 41 45 51 68 30 68 -8 0 -13 -4 -10 -9z
m-88 -93 c-15 -18 -41 -53 -59 -78 -46 -63 -96 -117 -97 -102 0 6 -12 12 -27
12 -25 -1 -26 -2 -11 -14 23 -17 13 -26 -29 -26 -44 0 -42 14 9 59 23 20 76
69 119 109 47 44 86 72 100 72 21 0 21 -1 -5 -32z"/>
<path d="M10209 4813 c-1 -43 -1 -81 0 -85 0 -4 -13 -11 -30 -15 l-31 -8 28
-28 c21 -21 25 -30 16 -39 -19 -19 -14 -28 18 -28 20 0 30 5 30 15 0 8 -7 15
-15 15 -20 0 -20 49 1 57 13 5 13 7 2 14 -11 7 -11 12 0 29 17 28 14 150 -4
150 -11 0 -14 -19 -15 -77z"/>
<path d="M10146 4521 c-4 -5 -30 -12 -59 -16 -28 -4 -55 -12 -59 -18 -4 -6
-58 -14 -120 -19 -62 -4 -125 -9 -140 -12 -16 -2 -31 0 -34 5 -3 5 -61 9 -129
8 -68 0 -128 2 -133 5 -17 10 -72 -6 -72 -20 0 -8 -7 -14 -15 -14 -8 0 -15 -4
-15 -9 0 -5 -9 -13 -20 -16 -11 -3 -20 -13 -20 -21 0 -8 -9 -14 -20 -14 -10 0
-33 -12 -49 -27 -16 -16 -36 -33 -43 -38 -26 -21 -99 -55 -117 -55 -10 0 -24
-7 -31 -15 -7 -8 -19 -15 -27 -15 -8 0 -21 -7 -29 -15 -9 -9 -34 -15 -61 -15
l-45 0 21 -33 c18 -30 19 -35 5 -49 -8 -8 -17 -36 -19 -61 -3 -38 0 -47 15
-52 10 -3 30 -17 44 -31 25 -26 43 -30 124 -26 30 1 42 6 42 17 0 8 6 15 14
15 8 0 16 7 20 15 3 8 13 15 21 15 9 0 23 7 31 15 21 20 31 19 44 -5 6 -11 17
-20 25 -20 8 0 15 -4 15 -10 0 -5 15 -10 33 -10 28 0 37 6 54 38 11 20 24 48
28 60 l7 24 -24 -23 c-12 -13 -28 -33 -33 -44 -15 -29 -38 -29 -73 0 -42 35
-74 32 -140 -15 -77 -54 -115 -59 -170 -23 -51 33 -58 55 -37 106 9 21 13 42
10 48 -4 5 11 17 32 25 21 9 70 31 110 50 39 19 77 33 85 31 7 -2 10 -2 6 0
-9 5 107 93 123 93 5 0 8 4 5 9 -3 5 5 12 19 15 14 4 25 13 25 21 0 8 6 15 14
15 7 0 19 7 26 15 14 17 95 21 105 5 3 -5 19 -10 36 -10 16 0 29 5 29 10 0 13
117 13 125 0 3 -5 22 -7 43 -5 20 3 92 9 160 14 67 5 128 13 135 18 6 5 32 15
56 22 39 11 45 11 65 -8 26 -25 76 -28 76 -6 0 10 -10 15 -30 15 -23 0 -31 5
-36 25 -6 25 -18 32 -28 16z"/>
<path d="M9760 4291 c0 -12 -77 -38 -128 -44 -54 -7 -86 -27 -117 -78 -14 -22
-37 -45 -51 -51 -23 -11 -24 -13 -7 -19 35 -14 43 -9 74 46 37 67 51 75 123
75 30 0 56 5 58 11 2 6 25 13 51 16 26 3 50 10 53 14 7 12 64 11 64 -1 0 -5
19 -10 43 -10 69 0 85 -8 94 -48 8 -32 13 -38 45 -43 20 -3 43 -13 53 -22 23
-24 35 -21 72 13 18 17 37 30 42 30 6 0 11 5 11 10 0 6 -13 10 -30 10 -18 0
-30 -5 -30 -13 0 -8 -10 -18 -23 -24 -18 -8 -28 -7 -46 8 -13 11 -34 19 -47
19 -14 0 -24 6 -24 14 0 29 -41 65 -88 75 -62 15 -192 23 -192 12z"/>
<path d="M9895 4139 c-17 -6 -17 -8 -2 -8 13 -1 17 -10 17 -35 0 -19 4 -37 10
-41 5 -3 7 -12 4 -19 -3 -8 3 -24 13 -35 14 -17 29 -21 76 -21 52 0 58 2 47
15 -7 8 -9 15 -5 15 4 0 -4 9 -19 21 -14 11 -26 27 -26 35 0 8 -7 14 -15 14
-8 0 -15 5 -15 11 0 5 -13 15 -29 20 -17 6 -31 16 -33 23 -2 9 -10 11 -23 5z
m97 -95 c6 -13 8 -27 4 -31 -11 -12 -39 12 -47 39 -6 22 -4 25 13 20 11 -2 25
-15 30 -28z"/>
<path d="M9693 3840 c16 -77 71 -102 79 -35 5 40 -18 65 -58 65 -24 0 -26 -3
-21 -30z"/>
<path d="M9550 3830 c0 -5 -13 -10 -30 -10 -33 0 -39 -14 -12 -29 9 -5 16 -12
14 -15 -1 -4 5 -17 14 -31 18 -28 15 -64 -7 -78 -24 -15 -64 -1 -79 28 -13 24
-50 35 -50 15 0 -18 -66 -80 -84 -80 -9 0 -16 -4 -16 -9 0 -5 -10 -13 -22 -16
-13 -4 -37 -13 -54 -22 -40 -21 -35 -49 18 -103 41 -41 78 -51 116 -31 9 6 38
13 63 16 33 4 54 14 74 35 20 21 38 30 60 30 23 0 41 9 63 33 62 63 73 81 68
102 -3 11 -6 28 -6 38 0 11 -8 17 -21 17 -26 0 -69 39 -69 63 0 9 -9 26 -20
37 -11 11 -20 16 -20 10z m52 -112 c13 -16 28 -28 34 -28 10 0 24 -21 24 -36
0 -3 -20 -25 -44 -49 -29 -30 -52 -45 -69 -45 -14 0 -32 -7 -41 -15 -8 -8 -19
-15 -25 -15 -6 0 -11 -4 -11 -9 0 -10 -50 -29 -96 -36 -16 -3 -41 -8 -56 -11
-21 -5 -32 0 -56 27 -16 18 -28 38 -25 45 2 6 31 24 63 39 33 16 72 41 87 57
31 32 40 34 64 12 9 -8 28 -16 41 -18 13 -1 30 -6 38 -11 8 -4 12 -5 8 -1 -4
5 2 17 13 29 21 23 24 61 9 104 -10 26 -9 27 5 8 8 -11 25 -32 37 -47z"/>
<path d="M9102 3754 c6 -23 -13 -74 -33 -84 -31 -17 -91 -15 -105 4 -14 20
-50 21 -58 1 -3 -8 -15 -15 -26 -15 -27 0 -25 -24 5 -54 19 -19 24 -32 19 -50
-7 -28 13 -55 43 -58 79 -7 142 45 178 145 17 49 22 74 15 90 -5 12 -9 18 -9
13 -1 -5 -8 -3 -17 4 -8 8 -14 9 -12 4z m-74 -118 c37 0 62 -4 62 -11 0 -33
-89 -105 -130 -105 -13 0 -21 9 -26 28 -3 15 -10 37 -15 50 -17 43 -12 55 19
47 15 -5 55 -8 90 -9z"/>
<path d="M9580 1714 c-8 -14 -26 -28 -41 -31 -18 -3 -26 -10 -22 -19 4 -10 -4
-14 -32 -14 -20 0 -34 -4 -31 -9 8 -13 100 0 109 15 12 20 136 19 143 -1 4 -9
19 -15 36 -15 l29 0 -27 25 c-15 14 -34 25 -42 25 -8 0 -12 3 -9 6 11 12 -41
44 -70 44 -22 0 -33 -7 -43 -26z"/>
<path d="M9238 1631 c-24 -23 -23 -58 1 -71 25 -13 91 -13 91 0 0 6 6 10 13
10 8 0 24 9 37 20 14 12 37 20 58 20 20 0 32 3 28 7 -4 4 -24 7 -44 8 -24 0
-36 4 -34 13 4 21 -129 15 -150 -7z m122 -15 c0 -15 -60 -44 -78 -39 -24 6
-30 28 -9 36 15 7 87 9 87 3z"/>
<path d="M9640 1581 c0 -5 -12 -12 -26 -15 -15 -4 -33 -14 -41 -21 -8 -8 -30
-15 -48 -15 -19 0 -37 -4 -40 -10 -3 -5 -23 -10 -43 -10 -20 0 -57 -5 -82 -11
-25 -6 -49 -12 -55 -13 -35 -8 -52 -18 -52 -33 0 -19 32 -53 50 -53 16 1 116
35 124 44 3 3 24 6 46 6 30 0 46 -6 65 -27 24 -26 28 -27 124 -25 83 2 102 6
118 22 11 11 20 22 20 25 0 3 9 14 20 25 12 12 20 33 20 55 0 28 -4 35 -20 35
-11 0 -20 -5 -20 -11 0 -6 -6 -5 -15 3 -8 7 -21 19 -29 26 -17 14 -116 17
-116 3z m131 -38 c21 -10 39 -24 39 -31 0 -7 -15 -28 -32 -47 -32 -34 -36 -35
-115 -37 -70 -3 -85 0 -111 19 -16 12 -45 26 -63 31 -27 8 -29 10 -11 11 13 1
53 13 89 27 124 50 148 53 204 27z m-352 -73 c-9 -5 -27 -12 -40 -14 -13 -3
-25 -5 -26 -5 -2 -1 -6 -1 -9 0 -4 0 -10 -5 -14 -11 -4 -7 -13 -9 -19 -6 -12
8 -16 40 -3 33 4 -3 16 -1 27 4 30 12 104 11 84 -1z"/>
<path d="M1 1434 c0 -11 3 -14 6 -6 3 7 2 16 -1 19 -3 4 -6 -2 -5 -13z"/>
<path d="M7580 1191 c0 -6 -8 -8 -17 -7 -20 4 -48 -20 -34 -29 12 -7 5 -101
-10 -137 -8 -21 -18 -28 -38 -28 -21 0 -33 -10 -57 -47 -16 -25 -41 -53 -55
-62 -14 -9 -27 -20 -27 -26 -1 -5 -22 -11 -46 -13 -24 -2 -50 -10 -56 -18 -7
-7 -22 -14 -35 -14 -12 0 -35 -6 -51 -14 -53 -26 -312 -27 -338 -1 -8 8 -19
15 -25 15 -18 0 -111 43 -111 51 0 4 -20 11 -45 15 -25 3 -45 10 -45 15 0 14
-25 11 -62 -8 -18 -10 -35 -20 -38 -23 -13 -14 -61 -40 -72 -40 -8 0 -21 -9
-31 -20 -9 -11 -23 -20 -31 -20 -7 0 -19 -7 -26 -15 -7 -8 -21 -15 -31 -15
-11 0 -19 -6 -19 -13 0 -8 -19 -23 -42 -33 -40 -18 -78 -47 -78 -60 0 -3 -6
-11 -12 -18 -7 -8 -35 -40 -63 -72 -27 -32 -62 -71 -77 -87 -16 -16 -28 -35
-28 -42 0 -8 -6 -18 -14 -22 -18 -11 -56 -96 -56 -126 0 -25 32 -70 93 -134
20 -20 38 -46 41 -58 6 -22 58 -85 70 -85 12 0 5 17 -26 66 -18 27 -31 52 -30
56 1 4 -7 12 -18 18 -11 6 -20 17 -20 26 0 8 -11 20 -25 26 -14 6 -25 19 -25
29 0 9 -7 19 -15 23 -8 3 -15 14 -15 25 0 28 30 101 41 101 5 0 9 7 9 16 0 9
9 18 19 21 11 3 18 10 15 16 -2 7 36 59 86 116 49 57 90 108 90 113 0 4 5 8
11 8 6 0 34 15 62 33 93 60 186 117 192 117 3 0 23 11 43 25 20 14 46 25 57
25 27 0 115 -32 115 -42 0 -4 11 -8 25 -8 14 0 25 -4 25 -10 0 -5 6 -10 14
-10 7 0 34 -9 59 -20 34 -15 75 -21 168 -25 123 -5 125 -4 222 31 54 20 101
33 104 31 10 -11 106 57 124 87 10 17 19 27 20 21 0 -5 4 0 9 12 5 13 27 30
48 40 34 14 42 24 55 67 8 28 14 65 12 83 -4 39 4 42 98 44 67 2 92 -5 70 -19
-8 -5 -1 -12 18 -21 20 -9 29 -20 29 -37 0 -13 5 -24 10 -24 15 0 11 -137 -6
-205 -9 -33 -18 -70 -21 -82 -4 -19 -43 -65 -43 -51 0 3 -18 -12 -40 -34 -35
-32 -47 -38 -85 -38 -25 0 -69 -10 -100 -23 -54 -22 -56 -23 -84 -97 l-29 -75
-51 3 c-59 3 -157 -22 -165 -43 -8 -21 -26 -19 -26 3 0 10 -7 27 -15 38 -14
18 -15 17 -12 -16 2 -31 -1 -35 -23 -35 -19 0 -24 4 -22 20 2 11 11 26 20 33
13 10 13 12 1 12 -22 0 -39 -21 -39 -46 0 -31 19 -42 64 -37 31 3 37 1 29 -9
-13 -17 -32 -152 -27 -200 3 -36 2 -38 -34 -45 -20 -4 -40 -8 -44 -9 -5 -1
-12 -2 -18 -3 -5 0 -9 -4 -7 -9 1 -4 -9 -19 -21 -32 -26 -27 -56 -80 -47 -80
14 0 45 21 45 31 0 28 80 79 125 79 16 0 25 6 25 15 0 8 5 15 10 15 7 0 7 7
-1 21 -10 20 -9 39 7 162 6 47 38 87 70 87 8 0 14 4 14 9 0 9 31 8 134 -1 26
-3 31 1 37 27 25 97 44 136 69 142 13 4 31 12 38 20 7 7 31 13 53 13 21 0 39
5 39 10 0 6 6 10 13 8 29 -6 68 15 105 57 22 25 43 45 48 45 13 0 46 134 51
204 3 32 2 82 -1 110 -6 42 -12 55 -36 71 -16 10 -27 22 -24 26 2 3 -5 16 -15
28 -16 18 -29 21 -95 21 -42 0 -76 -4 -76 -9z"/>
<path d="M7558 983 c7 -3 16 -2 19 1 4 3 -2 6 -13 5 -11 0 -14 -3 -6 -6z"/>
<path d="M8840 666 c0 -29 -28 -36 -135 -36 -58 0 -75 4 -89 19 -26 29 -82 19
-117 -20 -23 -25 -28 -42 -31 -95 -2 -46 0 -64 10 -64 6 0 12 4 12 9 0 5 17
12 37 16 21 4 50 13 65 21 15 8 36 14 46 14 11 0 25 7 32 15 8 10 31 15 69 15
31 0 74 5 96 10 25 6 44 5 49 0 18 -18 43 -10 61 16 15 23 16 33 6 65 -12 38
-13 39 -61 39 -46 0 -50 -2 -50 -24z m78 -38 c3 -27 2 -28 -49 -28 l-53 0 29
30 c37 38 69 37 73 -2z m-313 -8 c-3 -4 17 -13 43 -20 l47 -12 -35 -14 c-47
-20 -142 -54 -152 -54 -4 0 -8 14 -8 31 0 43 47 89 83 82 15 -3 25 -9 22 -13z
m143 -27 c-10 -2 -26 -2 -35 0 -10 3 -2 5 17 5 19 0 27 -2 18 -5z"/>
<path d="M8350 411 c0 -5 -13 -12 -29 -16 -16 -3 -35 -13 -42 -21 -6 -8 -17
-14 -24 -14 -7 0 -18 -7 -25 -15 -7 -8 -20 -15 -30 -15 -10 0 -20 -7 -24 -15
-3 -8 -10 -15 -16 -15 -5 0 -19 -9 -31 -21 -16 -16 -20 -34 -21 -87 -1 -71 7
-112 23 -112 5 0 9 -18 9 -40 0 -29 4 -40 15 -40 20 0 19 29 -3 87 -10 26 -20
68 -21 93 -3 58 18 86 94 125 32 17 60 36 62 43 11 26 53 -1 53 -35 0 -29 28
-61 70 -83 48 -24 86 -25 140 -4 43 18 57 13 63 -21 2 -11 13 -36 25 -55 12
-19 23 -43 23 -52 1 -10 3 -22 4 -28 1 -5 3 -23 4 -40 0 -17 6 -30 14 -30 25
0 8 118 -24 176 -16 28 -29 64 -29 81 0 20 -5 30 -12 29 -23 -5 -53 -20 -66
-33 -19 -19 -121 -17 -128 2 -4 8 -14 15 -24 15 -18 0 -28 16 -36 60 -8 37 4
70 29 80 20 8 19 9 -10 9 -18 1 -33 -3 -33 -8z"/>
</g>
</svg>
